<?xml version="1.0" encoding="UTF-8" standalone="no"?>
<!-- Created with Inkscape (http://www.inkscape.org/) -->

<svg
   xmlns:dc="http://purl.org/dc/elements/1.1/"
   xmlns:cc="http://creativecommons.org/ns#"
   xmlns:rdf="http://www.w3.org/1999/02/22-rdf-syntax-ns#"
   xmlns:svg="http://www.w3.org/2000/svg"
   xmlns="http://www.w3.org/2000/svg"
   xmlns:sodipodi="http://sodipodi.sourceforge.net/DTD/sodipodi-0.dtd"
   xmlns:inkscape="http://www.inkscape.org/namespaces/inkscape"
   version="1.1"
   id="svg2"
   width="12"
   height="12"
   viewBox="0 0 12 12"
   sodipodi:docname="admin.svg"
   inkscape:version="0.92.4 (f8dce91, 2019-08-02)">
  <metadata
     id="metadata8">
    <rdf:RDF>
      <cc:Work
         rdf:about="">
        <dc:format>image/svg+xml</dc:format>
        <dc:type
           rdf:resource="http://purl.org/dc/dcmitype/StillImage" />
        <dc:title></dc:title>
      </cc:Work>
    </rdf:RDF>
  </metadata>
  <defs
     id="defs6" />
  <sodipodi:namedview
     pagecolor="#000000"
     bordercolor="#666666"
     borderopacity="1"
     objecttolerance="10"
     gridtolerance="10"
     guidetolerance="10"
     inkscape:pageopacity="0"
     inkscape:pageshadow="2"
     inkscape:window-width="2560"
     inkscape:window-height="1318"
     id="namedview4"
     showgrid="false"
     inkscape:zoom="52.678571"
     inkscape:cx="7.760678"
     inkscape:cy="6.4128813"
     inkscape:window-x="0"
     inkscape:window-y="27"
     inkscape:window-maximized="1"
     inkscape:current-layer="g827" />
  <g
     id="g827"
     transform="translate(-1,-1)">
    <path
       id="path823"
       style="fill:#ffffff;fill-opacity:1"
       d="M 6.125,5.625 Q 6.25,5.25 6.625,5.125 7,5 7.375,5.125 7.75,5.25 7.875,5.625 8,6 7.875,6.375 7.75,6.75 7.375,6.875 7,7 6.625,6.875 6.25,6.75 6.125,6.375 6,6 6.125,5.625 M 3,1.5 Q 3.25,1.25 3.625,1.125 4,1 4.5,1 5,1 5.5,1 6,1 6.5,1 7,1 7.5,1 8,1 8.5,1 9,1 9.5,1 10,1 10.375,1.125 10.75,1.25 11,1.5 11.25,1.75 11.5,2 11.75,2.25 12,2.5 12.25,2.75 12.5,3 12.75,3.25 12.875,3.625 13,4 13,4.5 13,5 13,5.5 13,6 13,6.5 13,7 12.875,7.375 12.75,7.75 12.5,8 12.25,8.25 12.125,8.625 12,9 12,9.5 12,10 11.875,10.375 11.75,10.75 11.5,11 11.25,11.25 11,11.5 10.75,11.75 10.5,12 10.25,12.25 10,12.5 9.75,12.75 9.375,12.875 9,13 8.5,13 8,13 7.5,13 7,13 6.5,13 6,13 5.5,13 5,13 4.625,12.875 4.25,12.75 4,12.5 3.75,12.25 3.5,12 3.25,11.75 3,11.5 2.75,11.25 2.5,11 2.25,10.75 2.125,10.375 2,10 2,9.5 2,9 1.875,8.625 1.75,8.25 1.5,8 1.25,7.75 1.125,7.375 1,7 1,6.5 1,6 1,5.5 1,5 1,4.5 1,4 1.125,3.625 1.25,3.25 1.5,3 1.75,2.75 2,2.5 2.25,2.25 2.5,2 2.75,1.75 3,1.5 M 7.5,10 Q 8,10 8.375,9.875 8.75,9.75 8.75,9.5 8.75,9.25 8.375,9.125 8,9 7.5,9 7,9 6.5,9 6,9 5.625,9.125 5.25,9.25 5.25,9.5 5.25,9.75 5.625,9.875 6,10 6.5,10 q 0.5,0 1,0 m 0,-2 Q 8,8 8.375,7.875 8.75,7.75 9,7.5 9.25,7.25 9.5,7 9.75,6.75 9.875,6.375 10,6 9.875,5.625 9.75,5.25 9.5,5 9.25,4.75 9,4.5 8.75,4.25 8.375,4.125 8,4 7.5,4 7,4 6.5,4 6,4 5.625,4.125 5.25,4.25 5,4.5 4.75,4.75 4.5,5 4.25,5.25 4.125,5.625 4,6 4.125,6.375 4.25,6.75 4.5,7 4.75,7.25 5,7.5 5.25,7.75 5.625,7.875 6,8 6.5,8 7,8 7.5,8"
       inkscape:connector-curvature="0" />
  </g>
</svg>
