<?xml version="1.0" encoding="UTF-8" standalone="no"?>
<!-- Created with Inkscape (http://www.inkscape.org/) -->

<svg
   xmlns:dc="http://purl.org/dc/elements/1.1/"
   xmlns:cc="http://creativecommons.org/ns#"
   xmlns:rdf="http://www.w3.org/1999/02/22-rdf-syntax-ns#"
   xmlns:svg="http://www.w3.org/2000/svg"
   xmlns="http://www.w3.org/2000/svg"
   xmlns:sodipodi="http://sodipodi.sourceforge.net/DTD/sodipodi-0.dtd"
   xmlns:inkscape="http://www.inkscape.org/namespaces/inkscape"
   version="1.1"
   id="svg2"
   width="10"
   height="11"
   viewBox="0 0 10 11"
   sodipodi:docname="book.svg"
   inkscape:version="0.92.4 (f8dce91, 2019-08-02)">
  <metadata
     id="metadata8">
    <rdf:RDF>
      <cc:Work
         rdf:about="">
        <dc:format>image/svg+xml</dc:format>
        <dc:type
           rdf:resource="http://purl.org/dc/dcmitype/StillImage" />
        <dc:title></dc:title>
      </cc:Work>
    </rdf:RDF>
  </metadata>
  <defs
     id="defs6" />
  <sodipodi:namedview
     pagecolor="#000000"
     bordercolor="#666666"
     borderopacity="1"
     objecttolerance="10"
     gridtolerance="10"
     guidetolerance="10"
     inkscape:pageopacity="0"
     inkscape:pageshadow="2"
     inkscape:window-width="2560"
     inkscape:window-height="1318"
     id="namedview4"
     showgrid="false"
     inkscape:zoom="18.624687"
     inkscape:cx="-15.26171"
     inkscape:cy="11.56781"
     inkscape:window-x="0"
     inkscape:window-y="27"
     inkscape:window-maximized="1"
     inkscape:current-layer="g24" />
  <g
     id="g24"
     transform="translate(-2,-2)">
    <path
       style="fill:#ffffff;fill-opacity:1"
       d="M 4.5,2 C 4.1666667,2 3.875,2.0416667 3.625,2.125 3.375,2.2083333 3.1666667,2.3333333 3,2.5 L 2.5,3 C 2.3333333,3.1666667 2.2083333,3.375 2.125,3.625 2.0416667,3.875 2,4.1666667 2,4.5 v 1 1 1 1 1 1 1 c 0,0.333333 0.041667,0.625 0.125,0.875 0.083333,0.25 0.25,0.416667 0.5,0.5 C 2.875,12.958333 3.1666667,13 3.5,13 h 1 1 1 1 1 1 c 0.3333333,0 0.625,-0.04167 0.875,-0.125 C 10.625,12.79167 10.833333,12.666667 11,12.5 L 11.5,12 c 0.166667,-0.166667 0.291667,-0.375 0.375,-0.625 C 11.958333,11.125 12,10.833333 12,10.5 v -1 -1 -1 -1 -1 -1 -1 C 12,3.1666667 11.95833,2.875 11.875,2.625 11.79167,2.375 11.625,2.2083333 11.375,2.125 11.125,2.0416667 10.833333,2 10.5,2 h -1 -1 -1 -1 -1 z m 1,1 h 1 1 1 1 c 0.3333333,0 0.625,0.041667 0.875,0.125 0.25,0.083333 0.416667,0.25 0.5,0.5 C 10.958333,3.875 11,4.1666667 11,4.5 v 1 1 1 1 1 c 0,0.3333333 -0.04167,0.625 -0.125,0.875 -0.08333,0.25 -0.25,0.416667 -0.5,0.5 C 10.125,10.958333 9.8333333,11 9.5,11 h -1 -1 -1 -1 C 5.1666667,11 4.875,10.95833 4.625,10.875 4.375,10.79167 4.2083333,10.625 4.125,10.375 4.0416667,10.125 4,9.8333333 4,9.5 v -1 -1 -1 -1 -1 C 4,4.1666667 4.0416667,3.875 4.125,3.625 4.2083333,3.375 4.375,3.2083333 4.625,3.125 4.875,3.0416667 5.1666667,3 5.5,3 Z m 1,1 C 6.1666667,4 5.875,4.041667 5.625,4.125 c -0.25,0.083333 -0.4166667,0.25 -0.5,0.5 -0.083333,0.25 -0.083333,0.5 0,0.75 0.083333,0.25 0.25,0.4166667 0.5,0.5 C 5.875,5.9583333 6.1666667,6 6.5,6 h 1 1 c 0.3333333,0 0.625,-0.041667 0.875,-0.125 0.25,-0.083333 0.4166667,-0.25 0.5,-0.5 0.083333,-0.25 0.083333,-0.5 0,-0.75 C 9.791667,4.375 9.625,4.2083333 9.375,4.125 9.125,4.0416667 8.8333333,4 8.5,4 h -1 z m 0,3 C 6.1666667,7 5.875,7.0416667 5.625,7.125 5.375,7.2083333 5.25,7.3333333 5.25,7.5 5.25,7.6666667 5.375,7.7916667 5.625,7.875 5.875,7.9583333 6.1666667,8 6.5,8 h 1 1 C 8.8333333,8 9.125,7.9583333 9.375,7.875 9.625,7.7916667 9.75,7.6666667 9.75,7.5 9.75,7.3333333 9.625,7.2083333 9.375,7.125 9.125,7.0416667 8.8333333,7 8.5,7 h -1 z m 0,2 C 6.1666667,9 5.875,9.0416667 5.625,9.125 5.375,9.2083333 5.25,9.3333333 5.25,9.5 5.25,9.6666667 5.375,9.7916667 5.625,9.875 5.875,9.9583333 6.1666667,10 6.5,10 h 1 1 C 8.8333333,10 9.125,9.9583333 9.375,9.875 9.625,9.7916667 9.75,9.6666667 9.75,9.5 9.75,9.3333333 9.625,9.2083333 9.375,9.125 9.125,9.0416667 8.8333333,9 8.5,9 h -1 z"
       id="path14"
       inkscape:connector-curvature="0" />
  </g>
</svg>
