<?xml version="1.0" encoding="UTF-8" standalone="no"?>
<!-- Created with Inkscape (http://www.inkscape.org/) -->

<svg
   xmlns:dc="http://purl.org/dc/elements/1.1/"
   xmlns:cc="http://creativecommons.org/ns#"
   xmlns:rdf="http://www.w3.org/1999/02/22-rdf-syntax-ns#"
   xmlns:svg="http://www.w3.org/2000/svg"
   xmlns="http://www.w3.org/2000/svg"
   xmlns:sodipodi="http://sodipodi.sourceforge.net/DTD/sodipodi-0.dtd"
   xmlns:inkscape="http://www.inkscape.org/namespaces/inkscape"
   version="1.1"
   id="svg2"
   width="8"
   height="7.75"
   viewBox="0 0 8 7.75"
   sodipodi:docname="chat.svg"
   inkscape:version="0.92.4 (f8dce91, 2019-08-02)">
  <metadata
     id="metadata8">
    <rdf:RDF>
      <cc:Work
         rdf:about="">
        <dc:format>image/svg+xml</dc:format>
        <dc:type
           rdf:resource="http://purl.org/dc/dcmitype/StillImage" />
        <dc:title></dc:title>
      </cc:Work>
    </rdf:RDF>
  </metadata>
  <defs
     id="defs6" />
  <sodipodi:namedview
     pagecolor="#000000"
     bordercolor="#666666"
     borderopacity="1"
     objecttolerance="10"
     gridtolerance="10"
     guidetolerance="10"
     inkscape:pageopacity="0"
     inkscape:pageshadow="2"
     inkscape:window-width="2560"
     inkscape:window-height="1318"
     id="namedview4"
     showgrid="false"
     inkscape:zoom="23.6"
     inkscape:cx="-8.033898"
     inkscape:cy="4.0042373"
     inkscape:window-x="0"
     inkscape:window-y="27"
     inkscape:window-maximized="1"
     inkscape:current-layer="g16" />
  <g
     id="g16"
     transform="translate(-1,-1)">
    <path
       style="fill:#ffffff;fill-opacity:1"
       d="M 2,1.5 Q 2.25,1.25 2.625,1.125 3,1 3.5,1 4,1 4.5,1 5,1 5.5,1 6,1 6.5,1 7,1 7.375,1.125 7.75,1.25 8,1.5 8.25,1.75 8.5,2 8.75,2.25 8.875,2.625 9,3 9,3.5 9,4 9,4.5 9,5 8.875,5.375 8.75,5.75 8.5,6 8.25,6.25 8,6.5 7.75,6.75 7.375,6.875 7,7 6.5,7 6,7 5.5,7 5,7 4.5,7 4,7 3.625,7.125 3.25,7.25 3.125,7.625 3,8 2.875,8.375 2.75,8.75 2.5,8.75 2.25,8.75 2,8.5 1.75,8.25 1.5,8 1.25,7.75 1.125,7.375 1,7 1,6.5 1,6 1,5.5 1,5 1,4.5 1,4 1,3.5 1,3 1.125,2.625 1.25,2.25 1.5,2 1.75,1.75 2,1.5"
       id="path14"
       inkscape:connector-curvature="0" />
  </g>
</svg>
