<?xml version="1.0" encoding="UTF-8" standalone="no"?>
<!-- Created with Inkscape (http://www.inkscape.org/) -->

<svg
   xmlns:dc="http://purl.org/dc/elements/1.1/"
   xmlns:cc="http://creativecommons.org/ns#"
   xmlns:rdf="http://www.w3.org/1999/02/22-rdf-syntax-ns#"
   xmlns:svg="http://www.w3.org/2000/svg"
   xmlns="http://www.w3.org/2000/svg"
   xmlns:sodipodi="http://sodipodi.sourceforge.net/DTD/sodipodi-0.dtd"
   xmlns:inkscape="http://www.inkscape.org/namespaces/inkscape"
   version="1.1"
   id="svg2"
   width="6"
   height="6"
   viewBox="0 0 6 6"
   sodipodi:docname="command-rally.svg"
   inkscape:version="0.92.4 (f8dce91, 2019-08-02)">
  <metadata
     id="metadata8">
    <rdf:RDF>
      <cc:Work
         rdf:about="">
        <dc:format>image/svg+xml</dc:format>
        <dc:type
           rdf:resource="http://purl.org/dc/dcmitype/StillImage" />
        <dc:title></dc:title>
      </cc:Work>
    </rdf:RDF>
  </metadata>
  <defs
     id="defs6" />
  <sodipodi:namedview
     pagecolor="#000000"
     bordercolor="#666666"
     borderopacity="1"
     objecttolerance="10"
     gridtolerance="10"
     guidetolerance="10"
     inkscape:pageopacity="0"
     inkscape:pageshadow="2"
     inkscape:window-width="2560"
     inkscape:window-height="1318"
     id="namedview4"
     showgrid="false"
     inkscape:zoom="29.5"
     inkscape:cx="-12.118644"
     inkscape:cy="2.7966102"
     inkscape:window-x="0"
     inkscape:window-y="27"
     inkscape:window-maximized="1"
     inkscape:current-layer="g88" />
  <g
     id="g88"
     transform="translate(-1,-1)">
    <path
       style="fill:#ffffff;fill-opacity:1"
       d="M 2,1.5 Q 2.25,1.25 2.625,1.125 3,1 3.5,1 4,1 4.5,1 5,1 5.375,1.125 5.75,1.25 6,1.5 6.25,1.75 6.5,2 6.75,2.25 6.875,2.625 7,3 7,3.5 7,4 7,4.5 7,5 6.875,5.375 6.75,5.75 6.5,6 6.25,6.25 6,6.5 5.75,6.75 5.375,6.875 5,7 4.5,7 4,7 3.5,7 3,7 2.625,6.875 2.25,6.75 2,6.5 1.75,6.25 1.5,6 1.25,5.75 1.125,5.375 1,5 1,4.5 1,4 1,3.5 1,3 1.125,2.625 1.25,2.25 1.5,2 1.75,1.75 2,1.5 M 3.625,5.875 Q 4,6 4.375,5.875 4.75,5.75 5,5.5 5.25,5.25 5.5,5 5.75,4.75 5.875,4.375 6,4 5.875,3.625 5.75,3.25 5.5,3 5.25,2.75 5,2.5 4.75,2.25 4.375,2.125 4,2 3.625,2.125 3.25,2.25 3,2.5 2.75,2.75 2.5,3 2.25,3.25 2.125,3.625 2,4 2.125,4.375 2.25,4.75 2.5,5 2.75,5.25 3,5.5 3.25,5.75 3.625,5.875"
       id="path84"
       inkscape:connector-curvature="0" />
  </g>
</svg>
