<?xml version="1.0" encoding="UTF-8" standalone="no"?>
<!-- Created with Inkscape (http://www.inkscape.org/) -->

<svg
   xmlns:dc="http://purl.org/dc/elements/1.1/"
   xmlns:cc="http://creativecommons.org/ns#"
   xmlns:rdf="http://www.w3.org/1999/02/22-rdf-syntax-ns#"
   xmlns:svg="http://www.w3.org/2000/svg"
   xmlns="http://www.w3.org/2000/svg"
   xmlns:sodipodi="http://sodipodi.sourceforge.net/DTD/sodipodi-0.dtd"
   xmlns:inkscape="http://www.inkscape.org/namespaces/inkscape"
   version="1.1"
   id="svg2"
   width="10"
   height="8.9375"
   viewBox="0 0 10 8.9375"
   sodipodi:docname="crafting.svg"
   inkscape:version="0.92.4 (f8dce91, 2019-08-02)">
  <metadata
     id="metadata8">
    <rdf:RDF>
      <cc:Work
         rdf:about="">
        <dc:format>image/svg+xml</dc:format>
        <dc:type
           rdf:resource="http://purl.org/dc/dcmitype/StillImage" />
        <dc:title></dc:title>
      </cc:Work>
    </rdf:RDF>
  </metadata>
  <defs
     id="defs6" />
  <sodipodi:namedview
     pagecolor="#000000"
     bordercolor="#666666"
     borderopacity="1"
     objecttolerance="10"
     gridtolerance="10"
     guidetolerance="10"
     inkscape:pageopacity="0"
     inkscape:pageshadow="2"
     inkscape:window-width="2560"
     inkscape:window-height="1318"
     id="namedview4"
     showgrid="false"
     inkscape:zoom="61.458335"
     inkscape:cx="3.677966"
     inkscape:cy="5.0935595"
     inkscape:window-x="0"
     inkscape:window-y="27"
     inkscape:window-maximized="1"
     inkscape:current-layer="svg2" />
  <g
     id="g5253"
     transform="translate(-1,-2.0625)">
    <path
       style="fill:#ffffff;fill-opacity:1"
       d="M 9.125,2.625 Q 9.25,2.25 9.625,2.125 10,2 10.375,2.125 10.75,2.25 10.875,2.625 11,3 11,3.5 q 0,0.5 0,1 0,0.5 0,1 0,0.5 0,1 0,0.5 0,1 0,0.5 0,1 0,0.5 0,1 0,0.5 -0.125,0.875 -0.125,0.375 -0.5,0.5 Q 10,11 9.5,11 9,11 8.5,11 8,11 7.5,11 7,11 6.5,11 6,11 5.5,11 5,11 4.5,11 4,11 3.5,11 3,11 2.5,11 2,11 1.625,10.875 1.25,10.75 1.125,10.375 1,10 1,9.5 1,9 1,8.5 1,8 1,7.5 1,7 1,6.5 1,6 1,5.5 1,5 1,4.5 1,4 1.125,3.625 1.25,3.25 1.5,3.25 1.75,3.25 2,3.5 2.25,3.75 2.5,4 2.75,4.25 3,4.5 3.25,4.75 3.5,5 3.75,5.25 4,5.5 4.25,5.75 4.5,5.75 4.75,5.75 4.875,5.375 5,5 5,4.5 5,4 5.125,3.625 5.25,3.25 5.5,3.25 5.75,3.25 6,3.5 6.25,3.75 6.5,4 6.75,4.25 7,4.5 7.25,4.75 7.5,5 7.75,5.25 8,5.5 8.25,5.75 8.5,5.75 8.75,5.75 8.875,5.375 9,5 9,4.5 9,4 9,3.5 9,3 9.125,2.625 M 8.5,10 Q 9,10 9.375,9.875 9.75,9.75 9.875,9.375 10,9 10,8.5 10,8 9.875,7.625 9.75,7.25 9.375,7.125 9,7 8.625,6.875 8.25,6.75 8,6.5 7.75,6.25 7.5,6 7.25,5.75 7,5.5 6.75,5.25 6.5,5.25 6.25,5.25 6.125,5.625 6,6 5.875,6.375 5.75,6.75 5.375,6.875 5,7 4.625,6.875 4.25,6.75 4,6.5 3.75,6.25 3.5,6 3.25,5.75 3,5.5 2.75,5.25 2.5,5.25 2.25,5.25 2.125,5.625 2,6 2,6.5 2,7 2,7.5 2,8 2,8.5 2,9 2.125,9.375 2.25,9.75 2.625,9.875 3,10 3.5,10 q 0.5,0 1,0 0.5,0 1,0 0.5,0 1,0 0.5,0 1,0 0.5,0 1,0"
       id="path5243"
       inkscape:connector-curvature="0" />
    <path
       style="fill:#ffffff;fill-opacity:1"
       d="m 3.25,8.5 q 0,-0.25 0.25,-0.25 0.25,0 0.25,0.25 0,0.25 -0.25,0.25 -0.25,0 -0.25,-0.25"
       id="path5247"
       inkscape:connector-curvature="0" />
    <path
       style="fill:#ffffff;fill-opacity:1"
       d="m 5.25,8.5 q 0,-0.25 0.25,-0.25 0.25,0 0.25,0.25 0,0.25 -0.25,0.25 -0.25,0 -0.25,-0.25"
       id="path5249"
       inkscape:connector-curvature="0" />
    <path
       style="fill:#ffffff;fill-opacity:1"
       d="m 7.25,8.5 q 0,-0.25 0.25,-0.25 0.25,0 0.25,0.25 0,0.25 -0.25,0.25 -0.25,0 -0.25,-0.25"
       id="path5251"
       inkscape:connector-curvature="0" />
  </g>
</svg>
