<?xml version="1.0" encoding="UTF-8" standalone="no"?>
<!-- Created with Inkscape (http://www.inkscape.org/) -->

<svg
   xmlns:dc="http://purl.org/dc/elements/1.1/"
   xmlns:cc="http://creativecommons.org/ns#"
   xmlns:rdf="http://www.w3.org/1999/02/22-rdf-syntax-ns#"
   xmlns:svg="http://www.w3.org/2000/svg"
   xmlns="http://www.w3.org/2000/svg"
   xmlns:sodipodi="http://sodipodi.sourceforge.net/DTD/sodipodi-0.dtd"
   xmlns:inkscape="http://www.inkscape.org/namespaces/inkscape"
   version="1.1"
   id="svg817"
   width="10"
   height="9.875"
   viewBox="0 0 10 9.875"
   sodipodi:docname="defense.svg"
   inkscape:version="0.92.4 (f8dce91, 2019-08-02)">
  <metadata
     id="metadata823">
    <rdf:RDF>
      <cc:Work
         rdf:about="">
        <dc:format>image/svg+xml</dc:format>
        <dc:type
           rdf:resource="http://purl.org/dc/dcmitype/StillImage" />
        <dc:title></dc:title>
      </cc:Work>
    </rdf:RDF>
  </metadata>
  <defs
     id="defs821" />
  <sodipodi:namedview
     pagecolor="#000000"
     bordercolor="#666666"
     borderopacity="1"
     objecttolerance="10"
     gridtolerance="10"
     guidetolerance="10"
     inkscape:pageopacity="0"
     inkscape:pageshadow="2"
     inkscape:window-width="2560"
     inkscape:window-height="1318"
     id="namedview819"
     showgrid="false"
     inkscape:zoom="43.457605"
     inkscape:cx="10.243339"
     inkscape:cy="4.6479408"
     inkscape:window-x="0"
     inkscape:window-y="27"
     inkscape:window-maximized="1"
     inkscape:current-layer="g5280" />
  <g
     transform="translate(-0.999269,-1.0631022)"
     id="g5280">
    <path
       style="fill:#ffffff;fill-opacity:1"
       d="m -10.472656,-2.8027344 c -0.125,0 -0.25,0.020833 -0.375,0.0625 -0.25,0.083333 -0.416667,0.25 -0.5,0.5 -0.08333,0.25 -0.125,0.5416667 -0.125,0.875 v 1.00000002 1 0.99999998 c 0,0.3333334 0.04167,0.625 0.125,0.875 0.08333,0.25 0.208333,0.4583334 0.375,0.625 l 0.5,0.5 0.4999998,0.5 0.5,0.5 0.5,0.5 0.5,0.5 0.5,0.5 0.5,0.5 c 0.1666666,0.1666667 0.3749999,0.2916667 0.625,0.375 0.25,0.083333 0.4999999,0.083333 0.75,0 0.2499999,-0.083333 0.4583333,-0.2083333 0.625,-0.375 l 0.5,-0.5 0.5,-0.5 0.5,-0.5 0.5,-0.5 0.5,-0.5 0.5,-0.5 0.5,-0.5 c 0.1666666,-0.1666666 0.2916666,-0.375 0.375,-0.625 0.083333,-0.25 0.125,-0.5416666 0.125,-0.875 v -0.99999998 -1 -1.00000002 c 0,-0.3333333 -0.041667,-0.625 -0.125,-0.875 -0.083333,-0.25 -0.25,-0.4166666 -0.5,-0.5 -0.25,-0.083333 -0.5,-0.083333 -0.75,0 -0.2500001,0.083333 -0.4583334,0.2083334 -0.625,0.375 l -0.5,0.5 -0.5,0.5 c -0.1666667,0.1666667 -0.375,0.2916667 -0.625,0.37500002 -0.2500001,0.0833333 -0.5416667,0.125 -0.875,0.125 h -1 c -0.3333334,10e-9 -0.6250001,-0.0416667 -0.875,-0.125 -0.25,-0.0833333 -0.4583334,-0.20833332 -0.625,-0.37500002 l -0.5,-0.5 -0.5,-0.5 c -0.1666667,-0.1666666 -0.375,-0.2916666 -0.6249998,-0.375 -0.125,-0.041667 -0.25,-0.0625 -0.375,-0.0625 z m 0.4999998,1.1875 c 0.1666666,0 0.3333333,0.083333 0.5,0.25 l 0.5,0.50000002 0.5,0.5 c 0.1666666,0.16666667 0.375,0.29166667 0.625,0.37500001 0.2499999,0.08333333 0.5416666,0.12499999 0.875,0.12499999 h 1 c 0.3333333,0 0.6249999,-0.04166666 0.875,-0.12499999 0.25,-0.08333334 0.4583333,-0.20833334 0.625,-0.37500001 l 0.5,-0.5 0.5,-0.50000002 c 0.1666666,-0.1666666 0.3333333,-0.25 0.5,-0.25 0.1666666,0 0.2916666,0.125 0.375,0.375 0.083333,0.25000002 0.125,0.54166669 0.125,0.87500002 v 1 0.99999998 c 0,0.3333334 -0.041667,0.625 -0.125,0.875 -0.083333,0.25 -0.2083334,0.4583334 -0.375,0.625 l -0.5,0.5 -0.5,0.5 -0.5,0.5 -0.5,0.5 -0.5,0.5 c -0.1666667,0.1666667 -0.3750001,0.2916667 -0.625,0.375 -0.25,0.083333 -0.5000001,0.083333 -0.75,0 -0.2500001,-0.083333 -0.4583334,-0.2083333 -0.625,-0.375 l -0.5,-0.5 -0.5,-0.5 -0.5,-0.5 -0.5,-0.5 -0.5,-0.5 c -0.1666668,-0.1666666 -0.2916668,-0.375 -0.3749998,-0.625 -0.08333,-0.25 -0.125,-0.5416666 -0.125,-0.875 v -0.99999998 -1 c 0,-0.33333333 0.04167,-0.625 0.125,-0.87500002 0.08333,-0.25 0.208333,-0.375 0.3749998,-0.375 z"
       transform="translate(12.471925,3.8658366)"
       id="path5276"
       inkscape:connector-curvature="0" />
  </g>
</svg>
