<?xml version="1.0" encoding="UTF-8" standalone="no"?>
<!-- Created with Inkscape (http://www.inkscape.org/) -->

<svg
   xmlns:dc="http://purl.org/dc/elements/1.1/"
   xmlns:cc="http://creativecommons.org/ns#"
   xmlns:rdf="http://www.w3.org/1999/02/22-rdf-syntax-ns#"
   xmlns:svg="http://www.w3.org/2000/svg"
   xmlns="http://www.w3.org/2000/svg"
   xmlns:sodipodi="http://sodipodi.sourceforge.net/DTD/sodipodi-0.dtd"
   xmlns:inkscape="http://www.inkscape.org/namespaces/inkscape"
   version="1.1"
   id="svg3799"
   width="256"
   height="256"
   viewBox="0 0 10 10"
   sodipodi:docname="icon-distribution-transparent.png.svg"
   inkscape:version="0.92.4 (f8dce91, 2019-08-02)">
  <metadata
     id="metadata3805">
    <rdf:RDF>
      <cc:Work
         rdf:about="">
        <dc:format>image/svg+xml</dc:format>
        <dc:type
           rdf:resource="http://purl.org/dc/dcmitype/StillImage" />
        <dc:title></dc:title>
      </cc:Work>
    </rdf:RDF>
  </metadata>
  <defs
     id="defs3803" />
  <sodipodi:namedview
     pagecolor="#000000"
     bordercolor="#666666"
     borderopacity="1"
     objecttolerance="10"
     gridtolerance="10"
     guidetolerance="10"
     inkscape:pageopacity="0"
     inkscape:pageshadow="2"
     inkscape:window-width="1280"
     inkscape:window-height="1318"
     id="namedview3801"
     showgrid="false"
     inkscape:zoom="45.254834"
     inkscape:cx="6.2899407"
     inkscape:cy="4.0348889"
     inkscape:window-x="1280"
     inkscape:window-y="27"
     inkscape:window-maximized="0"
     inkscape:current-layer="g3829" />
  <g
     id="g3829">
    <path
       style="fill:#ffffff;fill-opacity:1"
       d="M 0 0 L 0 0.5 L 0 1 L 0 1.5 L 0 2 L 0 2.5 L 0 3 L 0 3.5 L 0 4 L 0 4.5 L 0 5 L 0 5.5 L 0 6 L 0 6.5 L 0 7 L 0 7.5 L 0 8 L 0 8.5 L 0 9 L 0 9.5 L 0 10 L 0.5 10 L 1 10 L 1 9.5 L 1 8.5 L 1 7.5 L 1 6.5 L 1 5.5 L 1 4.5 L 1 3.5 L 1 2.5 L 1 1.5 L 1 0.5 L 1 0 L 0.5 0 L 0 0 z M 9 0 L 9 0.5 L 9 1.5 L 9 2.5 L 9 3.5 L 9 4.5 L 9 5.5 L 9 6.5 L 9 7.5 L 9 8.5 L 9 9.5 L 9 10 L 9.5 10 L 10 10 L 10 9.5 L 10 9 L 10 8.5 L 10 8 L 10 7.5 L 10 7 L 10 6.5 L 10 6 L 10 5.5 L 10 5 L 10 4.5 L 10 4 L 10 3.5 L 10 3 L 10 2.5 L 10 2 L 10 1.5 L 10 1 L 10 0.5 L 10 0 L 9.5 0 L 9 0 z M 5 1.0625 C 4.875 1.0625 4.75 1.0833335 4.625 1.125 C 4.375 1.2083333 4.1666667 1.3333333 4 1.5 L 3.5 2 C 3.3333333 2.1666667 3.25 2.3333333 3.25 2.5 C 3.25 2.6666667 3.375 2.7916667 3.625 2.875 C 3.875 2.9583333 4.1666667 3 4.5 3 L 5.5 3 C 5.9760929 2.9389882 6.4908205 3.0048105 6.75 2.5 C 6.75 2.3333333 6.6666667 2.1666667 6.5 2 L 6 1.5 C 5.8333333 1.3333333 5.625 1.2083333 5.375 1.125 C 5.25 1.0833335 5.125 1.0625 5 1.0625 z M 5 4.0625 C 4.875 4.0625 4.75 4.0833333 4.625 4.125 C 4.375 4.2083333 4.1666667 4.3333333 4 4.5 L 3.5 5 C 3.3333333 5.1666667 3.25 5.3333333 3.25 5.5 C 3.25 5.6666667 3.375 5.7916667 3.625 5.875 C 3.875 5.9583333 4.1666667 6 4.5 6 L 5.5 6 C 5.8333333 6 6.125 5.9583333 6.375 5.875 C 6.625 5.7916667 6.75 5.6666667 6.75 5.5 C 6.75 5.3333333 6.6666667 5.1666667 6.5 5 L 6 4.5 C 5.8333333 4.3333333 5.625 4.2083333 5.375 4.125 C 5.25 4.0833333 5.125 4.0625 5 4.0625 z M 5 7.0625 C 4.875 7.0625 4.75 7.0833333 4.625 7.125 C 4.375 7.2083333 4.1666667 7.3333333 4 7.5 L 3.5 8 C 3.3333333 8.1666667 3.25 8.3333333 3.25 8.5 C 3.25 8.6666667 3.375 8.7916667 3.625 8.875 C 3.875 8.9583333 4.1666667 9 4.5 9 L 5.5 9 C 5.8333333 9 6.125 8.9583333 6.375 8.875 C 6.625 8.7916667 6.75 8.6666667 6.75 8.5 C 6.75 8.3333333 6.6666667 8.1666667 6.5 8 L 6 7.5 C 5.8333333 7.3333333 5.625 7.2083333 5.375 7.125 C 5.25 7.0833333 5.125 7.0625 5 7.0625 z "
       id="path3817" />
  </g>
</svg>
