<?xml version="1.0" encoding="UTF-8" standalone="no"?>
<!-- Created with Inkscape (http://www.inkscape.org/) -->

<svg
   xmlns:dc="http://purl.org/dc/elements/1.1/"
   xmlns:cc="http://creativecommons.org/ns#"
   xmlns:rdf="http://www.w3.org/1999/02/22-rdf-syntax-ns#"
   xmlns:svg="http://www.w3.org/2000/svg"
   xmlns="http://www.w3.org/2000/svg"
   xmlns:sodipodi="http://sodipodi.sourceforge.net/DTD/sodipodi-0.dtd"
   xmlns:inkscape="http://www.inkscape.org/namespaces/inkscape"
   version="1.1"
   id="svg2"
   width="11.9375"
   height="12"
   viewBox="0 0 11.9375 12"
   sodipodi:docname="exit.svg"
   inkscape:version="0.92.4 (f8dce91, 2019-08-02)">
  <metadata
     id="metadata8">
    <rdf:RDF>
      <cc:Work
         rdf:about="">
        <dc:format>image/svg+xml</dc:format>
        <dc:type
           rdf:resource="http://purl.org/dc/dcmitype/StillImage" />
        <dc:title></dc:title>
      </cc:Work>
    </rdf:RDF>
  </metadata>
  <defs
     id="defs6" />
  <sodipodi:namedview
     pagecolor="#000000"
     bordercolor="#666666"
     borderopacity="1"
     objecttolerance="10"
     gridtolerance="10"
     guidetolerance="10"
     inkscape:pageopacity="0"
     inkscape:pageshadow="2"
     inkscape:window-width="2560"
     inkscape:window-height="1318"
     id="namedview4"
     showgrid="false"
     inkscape:zoom="16.857143"
     inkscape:cx="24.210938"
     inkscape:cy="4.160156"
     inkscape:window-x="0"
     inkscape:window-y="27"
     inkscape:window-maximized="1"
     inkscape:current-layer="g18" />
  <g
     id="g18"
     transform="translate(-1.000926,-0.99913925)">
    <path
       style="fill:#ffffff;fill-opacity:1"
       d="m -14.710938,-0.83984375 c -0.333333,0 -0.625,0.0416667 -0.875,0.125 -0.25,0.0833333 -0.458333,0.20833333 -0.625,0.375 l -0.5,0.5 c -0.166666,0.16666667 -0.291666,0.375 -0.375,0.625 -0.08333,0.24999995 -0.125,0.54166665 -0.125,0.87499995 v 1 1 1 1 1 1 1 c 0,0.3333334 0.04167,0.625 0.125,0.875 0.08333,0.25 0.208334,0.4583334 0.375,0.6249998 l 0.5,0.5 c 0.166667,0.166667 0.375,0.291667 0.625,0.375 0.25,0.08333 0.541667,0.125 0.875,0.125 h 1 1 1 1 1.0000005 1 c 0.3333333,0 0.625,-0.04167 0.875,-0.125 0.25,-0.08333 0.4583333,-0.208333 0.625,-0.375 l 0.5,-0.5 c 0.1666667,-0.1666664 0.25,-0.3333331 0.25,-0.4999998 0,-0.1666666 -0.125,-0.2916666 -0.375,-0.375 -0.25,-0.083333 -0.5416667,-0.125 -0.875,-0.125 h -1 -1 -1.0000005 -1 -1 -1 c -0.333333,0 -0.625,-0.041667 -0.875,-0.125 -0.249999,-0.083333 -0.416666,-0.25 -0.5,-0.5 -0.08333,-0.2499999 -0.125,-0.5416666 -0.125,-0.875 v -1 -1 -1 -1 -1 c 0,-0.3333333 0.04167,-0.625 0.125,-0.875 0.08333,-0.2499999 0.25,-0.4166666 0.5,-0.5 0.25,-0.083333 0.541667,-0.125 0.875,-0.125 h 1 1 1 1.0000005 1 1 c 0.3333333,0 0.625,-0.041667 0.875,-0.125 0.25,-0.0833333 0.375,-0.20833328 0.375,-0.37499995 0,-0.16666667 -0.083333,-0.33333333 -0.25,-0.5 l -0.5,-0.5 c -0.1666667,-0.16666667 -0.375,-0.29166667 -0.625,-0.375 -0.25,-0.0833333 -0.5416667,-0.125 -0.875,-0.125 h -1 -1.0000005 -1 -1 -1 z m 7.0000005,3.24999995 c -0.1666667,0 -0.2916667,0.125 -0.375,0.375 l -0.25,0.75 c -0.083333,0.25 -0.25,0.4166667 -0.5,0.5 -0.25,0.083333 -0.5416667,0.125 -0.875,0.125 h -1.0000005 -1 c -0.333333,0 -0.625,0.041667 -0.875,0.125 -0.249999,0.083333 -0.416666,0.25 -0.5,0.5 -0.08333,0.25 -0.08333,0.5 0,0.75 0.08333,0.25 0.25,0.4166667 0.5,0.5 0.25,0.083333 0.541667,0.125 0.875,0.125 h 1 1.0000005 c 0.3333333,0 0.625,0.041667 0.875,0.125 0.25,0.083333 0.4166667,0.25 0.5,0.5 l 0.25,0.75 c 0.083333,0.25 0.2083333,0.375 0.375,0.375 0.1666667,0 0.3333333,-0.083333 0.5,-0.25 l 0.5,-0.5 0.5,-0.5 0.5,-0.5 c 0.1666667,-0.1666666 0.2916667,-0.375 0.375,-0.625 0.083333,-0.25 0.083333,-0.5 0,-0.75 -0.083333,-0.25 -0.2083333,-0.4583333 -0.375,-0.625 l -0.5,-0.5 -0.5,-0.5 -0.5,-0.5 c -0.1666667,-0.1666666 -0.3333333,-0.25 -0.5,-0.25 z"
       transform="translate(18.211864,1.838983)"
       id="path14"
       inkscape:connector-curvature="0" />
  </g>
</svg>
