<?xml version="1.0" encoding="UTF-8" standalone="no"?>
<!-- Created with Inkscape (http://www.inkscape.org/) -->

<svg
   xmlns:dc="http://purl.org/dc/elements/1.1/"
   xmlns:cc="http://creativecommons.org/ns#"
   xmlns:rdf="http://www.w3.org/1999/02/22-rdf-syntax-ns#"
   xmlns:svg="http://www.w3.org/2000/svg"
   xmlns="http://www.w3.org/2000/svg"
   xmlns:sodipodi="http://sodipodi.sourceforge.net/DTD/sodipodi-0.dtd"
   xmlns:inkscape="http://www.inkscape.org/namespaces/inkscape"
   version="1.1"
   id="svg2"
   width="13.9375"
   height="13.9375"
   viewBox="0 0 13.9375 13.9375"
   sodipodi:docname="fill.svg"
   inkscape:version="0.92.4 (f8dce91, 2019-08-02)">
  <metadata
     id="metadata8">
    <rdf:RDF>
      <cc:Work
         rdf:about="">
        <dc:format>image/svg+xml</dc:format>
        <dc:type
           rdf:resource="http://purl.org/dc/dcmitype/StillImage" />
        <dc:title></dc:title>
      </cc:Work>
    </rdf:RDF>
  </metadata>
  <defs
     id="defs6" />
  <sodipodi:namedview
     pagecolor="#000000"
     bordercolor="#666666"
     borderopacity="1"
     objecttolerance="10"
     gridtolerance="10"
     guidetolerance="10"
     inkscape:pageopacity="0"
     inkscape:pageshadow="2"
     inkscape:window-width="2560"
     inkscape:window-height="1318"
     id="namedview4"
     showgrid="false"
     inkscape:zoom="14.75"
     inkscape:cx="-19.842161"
     inkscape:cy="5.1069915"
     inkscape:window-x="0"
     inkscape:window-y="27"
     inkscape:window-maximized="1"
     inkscape:current-layer="g16" />
  <g
     id="g16"
     transform="translate(-1.0625,-1)">
    <path
       style="fill:#ffffff;fill-opacity:1"
       d="M 7,1.5 Q 7.25,1.25 7.625,1.125 8,1 8.5,1 9,1 9.375,1.125 9.75,1.25 10,1.5 10.25,1.75 10.5,2 10.75,2.25 10.875,2.625 11,3 11,3.5 11,4 10.875,4.375 10.75,4.75 10.5,5 q -0.25,0.25 -0.25,0.5 0,0.25 0.375,0.375 Q 11,6 11.5,6 12,6 12.375,6.125 12.75,6.25 13,6.5 13.25,6.75 13.5,7 13.75,7.25 14,7.5 14.25,7.75 14.5,8 14.75,8.25 14.875,8.625 15,9 15,9.5 q 0,0.5 0,1 0,0.5 0,1 0,0.5 0,1 0,0.5 -0.125,0.875 -0.125,0.375 -0.375,0.375 -0.25,0 -0.375,-0.375 Q 14,13 14,12.5 14,12 13.875,11.625 13.75,11.25 13.5,11 13.25,10.75 13.125,10.375 13,10 12.875,9.625 12.75,9.25 12.5,9.25 12.25,9.25 12,9.5 11.75,9.75 11.5,10 11.25,10.25 11,10.5 10.75,10.75 10.5,11 10.25,11.25 10,11.5 9.75,11.75 9.5,12 9.25,12.25 9,12.5 8.75,12.75 8.5,13 8.25,13.25 8,13.5 7.75,13.75 7.5,14 7.25,14.25 7,14.5 6.75,14.75 6.375,14.875 6,15 5.625,14.875 5.25,14.75 5,14.5 4.75,14.25 4.5,14 4.25,13.75 4,13.5 3.75,13.25 3.5,13 3.25,12.75 3,12.5 2.75,12.25 2.5,12 2.25,11.75 2,11.5 1.75,11.25 1.5,11 1.25,10.75 1.125,10.375 1,10 1.125,9.625 1.25,9.25 1.5,9 1.75,8.75 2,8.5 2.25,8.25 2.5,8 2.75,7.75 3,7.5 3.25,7.25 3.5,7 3.75,6.75 4,6.5 4.25,6.25 4.5,6.25 4.75,6.25 4.875,6.625 5,7 4.875,7.375 4.75,7.75 4.5,8 4.25,8.25 4,8.5 3.75,8.75 3.5,9 3.25,9.25 3.125,9.625 3,10 3.125,10.375 3.25,10.75 3.5,11 3.75,11.25 4,11.5 4.25,11.75 4.5,12 4.75,12.25 5,12.5 5.25,12.75 5.625,12.875 6,13 6.375,12.875 6.75,12.75 7,12.5 7.25,12.25 7.5,12 7.75,11.75 8,11.5 8.25,11.25 8.5,11 8.75,10.75 9,10.5 9.25,10.25 9.5,10 9.75,9.75 10,9.5 10.25,9.25 10.5,9 10.75,8.75 10.75,8.5 10.75,8.25 10.5,8 10.25,7.75 10,7.5 9.75,7.25 9.5,7 9.25,6.75 9,6.5 8.75,6.25 8.5,6 8.25,5.75 8.125,5.375 8,5 8.125,4.625 8.25,4.25 8.5,4.25 8.75,4.25 9,4.5 9.25,4.75 9.5,4.75 9.75,4.75 9.875,4.375 10,4 10,3.5 10,3 9.875,2.625 9.75,2.25 9.375,2.125 9,2 8.5,2 8,2 7.625,2.125 7.25,2.25 7.125,2.625 7,3 7,3.5 7,4 7,4.5 7,5 7,5.5 7,6 7,6.5 7,7 6.875,7.375 6.75,7.75 6.5,7.75 6.25,7.75 6.125,7.375 6,7 6,6.5 6,6 6,5.5 6,5 6,4.5 6,4 6,3.5 6,3 6.125,2.625 6.25,2.25 6.5,2 6.75,1.75 7,1.5"
       id="path14"
       inkscape:connector-curvature="0" />
  </g>
</svg>
