<?xml version="1.0" encoding="UTF-8" standalone="no"?>
<!-- Created with Inkscape (http://www.inkscape.org/) -->

<svg
   xmlns:dc="http://purl.org/dc/elements/1.1/"
   xmlns:cc="http://creativecommons.org/ns#"
   xmlns:rdf="http://www.w3.org/1999/02/22-rdf-syntax-ns#"
   xmlns:svg="http://www.w3.org/2000/svg"
   xmlns="http://www.w3.org/2000/svg"
   xmlns:sodipodi="http://sodipodi.sourceforge.net/DTD/sodipodi-0.dtd"
   xmlns:inkscape="http://www.inkscape.org/namespaces/inkscape"
   version="1.1"
   id="svg2"
   width="13.6875"
   height="13.687497"
   viewBox="0 0 13.6875 13.687497"
   sodipodi:docname="hammer.svg"
   inkscape:version="0.92.4 (f8dce91, 2019-08-02)">
  <metadata
     id="metadata8">
    <rdf:RDF>
      <cc:Work
         rdf:about="">
        <dc:format>image/svg+xml</dc:format>
        <dc:type
           rdf:resource="http://purl.org/dc/dcmitype/StillImage" />
        <dc:title></dc:title>
      </cc:Work>
    </rdf:RDF>
  </metadata>
  <defs
     id="defs6" />
  <sodipodi:namedview
     pagecolor="#000000"
     bordercolor="#666666"
     borderopacity="1"
     objecttolerance="10"
     gridtolerance="10"
     guidetolerance="10"
     inkscape:pageopacity="0"
     inkscape:pageshadow="2"
     inkscape:window-width="2560"
     inkscape:window-height="1318"
     id="namedview4"
     showgrid="false"
     inkscape:zoom="41.7193"
     inkscape:cx="4.0229218"
     inkscape:cy="7.3618256"
     inkscape:window-x="0"
     inkscape:window-y="27"
     inkscape:window-maximized="1"
     inkscape:current-layer="g821" />
  <g
     id="g821"
     transform="translate(-1.0625002,-1.25)">
    <path
       id="path819"
       style="fill:#ffffff;fill-opacity:1"
       d="M 7.5,1.25 C 7.3333333,1.25 7.1666667,1.3333333 7,1.5 L 6.5,2 6,2.5 5.5,3 5,3.5 4.5,4 4,4.5 3.5,5 C 3.3333333,5.1666667 3.25,5.3333333 3.25,5.5 3.25,5.6666667 3.3333333,5.8333333 3.5,6 L 4,6.5 4.5,7 5,7.5 5.5,8 C 5.6666667,8.1666667 5.75,8.3333333 5.75,8.5 5.75,8.6666667 5.6666667,8.8333333 5.5,9 L 5,9.5 4.5,10 4,10.5 3.5,11 3,11.5 2.5,12 2,12.5 1.5,13 c -0.1666667,0.166667 -0.2916667,0.375 -0.375,0.625 -0.083333,0.25 -0.083333,0.5 0,0.75 0.083333,0.25 0.25,0.416667 0.5,0.5 0.25,0.08333 0.5,0.08333 0.75,0 C 2.625,14.791667 2.8333333,14.666667 3,14.5 L 3.5,14 4,13.5 4.5,13 5,12.5 5.5,12 6,11.5 6.5,11 7,10.5 c 0.1666667,-0.166667 0.3333333,-0.25 0.5,-0.25 0.1666667,0 0.3333333,0.08333 0.5,0.25 L 8.5,11 9,11.5 9.5,12 10,12.5 c 0.166667,0.166667 0.333333,0.25 0.5,0.25 0.166667,0 0.333333,-0.08333 0.5,-0.25 L 11.5,12 12,11.5 12.5,11 13,10.5 13.5,10 14,9.5 14.5,9 C 14.666667,8.8333333 14.75,8.6666667 14.75,8.5 14.75,8.3333333 14.666667,8.1666667 14.5,8 L 14,7.5 13.5,7 13,6.5 12.5,6 12,5.5 11.5,5 11,4.5 10.5,4 10,3.5 9.5,3 9,2.5 8.5,2 8,1.5 C 7.8333333,1.3333333 7.6666667,1.25 7.5,1.25 Z"
       inkscape:connector-curvature="0" />
  </g>
</svg>
