<?xml version="1.0" encoding="UTF-8" standalone="no"?>
<!-- Created with Inkscape (http://www.inkscape.org/) -->

<svg
   xmlns:dc="http://purl.org/dc/elements/1.1/"
   xmlns:cc="http://creativecommons.org/ns#"
   xmlns:rdf="http://www.w3.org/1999/02/22-rdf-syntax-ns#"
   xmlns:svg="http://www.w3.org/2000/svg"
   xmlns="http://www.w3.org/2000/svg"
   xmlns:sodipodi="http://sodipodi.sourceforge.net/DTD/sodipodi-0.dtd"
   xmlns:inkscape="http://www.inkscape.org/namespaces/inkscape"
   version="1.1"
   id="svg2"
   width="8.75"
   height="8.75"
   viewBox="0 0 8.75 8.75"
   sodipodi:docname="liquid.svg"
   inkscape:version="0.92.4 (f8dce91, 2019-08-02)">
  <metadata
     id="metadata8">
    <rdf:RDF>
      <cc:Work
         rdf:about="">
        <dc:format>image/svg+xml</dc:format>
        <dc:type
           rdf:resource="http://purl.org/dc/dcmitype/StillImage" />
        <dc:title></dc:title>
      </cc:Work>
    </rdf:RDF>
  </metadata>
  <defs
     id="defs6" />
  <sodipodi:namedview
     pagecolor="#000000"
     bordercolor="#666666"
     borderopacity="1"
     objecttolerance="10"
     gridtolerance="10"
     guidetolerance="10"
     inkscape:pageopacity="0"
     inkscape:pageshadow="2"
     inkscape:window-width="2560"
     inkscape:window-height="1318"
     id="namedview4"
     showgrid="false"
     inkscape:zoom="30.729167"
     inkscape:cx="-5.7555702"
     inkscape:cy="11.13662"
     inkscape:window-x="0"
     inkscape:window-y="27"
     inkscape:window-maximized="1"
     inkscape:current-layer="g18" />
  <g
     id="g18"
     transform="translate(-1.25,-2)">
    <path
       style="fill:#ffffff;fill-opacity:1"
       d="M 1.25,2.5 Q 1.25,2.25 1.625,2.125 2,2 2.5,2 3,2 3.5,2 4,2 4.5,2 5,2 5.5,2 6,2 6.5,2 7,2 7.375,2.125 7.75,2.25 7.75,2.5 7.75,2.75 7.5,3 7.25,3.25 7.125,3.625 7,4 7.125,4.375 7.25,4.75 7.625,4.875 8,5 8.375,4.875 8.75,4.75 9,4.5 9.25,4.25 9.5,4.25 9.75,4.25 9.875,4.625 10,5 10,5.5 q 0,0.5 0,1 0,0.5 0,1 0,0.5 0,1 0,0.5 0,1 Q 10,10 9.875,10.375 9.75,10.75 9.5,10.75 9.25,10.75 9,10.5 8.75,10.25 8.375,10.125 8,10 7.5,10 7,10 6.5,10 6,10 5.5,10 5,10 4.625,9.875 4.25,9.75 4,9.5 3.75,9.25 3.5,9 3.25,8.75 3,8.5 2.75,8.25 2.5,8 2.25,7.75 2.125,7.375 2,7 2,6.5 2,6 2,5.5 2,5 2,4.5 2,4 1.875,3.625 1.75,3.25 1.5,3 1.25,2.75 1.25,2.5 M 7.5,9 Q 8,9 8.375,8.875 8.75,8.75 8.875,8.375 9,8 9,7.5 9,7 8.875,6.625 8.75,6.25 8.375,6.125 8,6 7.625,5.875 7.25,5.75 7,5.5 6.75,5.25 6.5,5 6.25,4.75 6.125,4.375 6,4 5.875,3.625 5.75,3.25 5.375,3.125 5,3 4.5,3 4,3 3.625,3.125 3.25,3.25 3.125,3.625 3,4 3,4.5 3,5 3,5.5 3,6 3,6.5 3,7 3.125,7.375 3.25,7.75 3.5,8 3.75,8.25 4,8.5 4.25,8.75 4.625,8.875 5,9 5.5,9 6,9 6.5,9 7,9 7.5,9"
       id="path14"
       inkscape:connector-curvature="0" />
  </g>
</svg>
