<?xml version="1.0" encoding="UTF-8" standalone="no"?>
<!-- Created with Inkscape (http://www.inkscape.org/) -->

<svg
   xmlns:dc="http://purl.org/dc/elements/1.1/"
   xmlns:cc="http://creativecommons.org/ns#"
   xmlns:rdf="http://www.w3.org/1999/02/22-rdf-syntax-ns#"
   xmlns:svg="http://www.w3.org/2000/svg"
   xmlns="http://www.w3.org/2000/svg"
   xmlns:sodipodi="http://sodipodi.sourceforge.net/DTD/sodipodi-0.dtd"
   xmlns:inkscape="http://www.inkscape.org/namespaces/inkscape"
   version="1.1"
   id="svg22"
   width="12"
   height="12.9375"
   viewBox="0 0 12 12.9375"
   sodipodi:docname="mode-survival.svg"
   inkscape:version="0.92.4 (f8dce91, 2019-08-02)">
  <metadata
     id="metadata28">
    <rdf:RDF>
      <cc:Work
         rdf:about="">
        <dc:format>image/svg+xml</dc:format>
        <dc:type
           rdf:resource="http://purl.org/dc/dcmitype/StillImage" />
        <dc:title></dc:title>
      </cc:Work>
    </rdf:RDF>
  </metadata>
  <defs
     id="defs26" />
  <sodipodi:namedview
     pagecolor="#000000"
     bordercolor="#666666"
     borderopacity="1"
     objecttolerance="10"
     gridtolerance="10"
     guidetolerance="10"
     inkscape:pageopacity="0"
     inkscape:pageshadow="2"
     inkscape:window-width="2560"
     inkscape:window-height="1318"
     id="namedview24"
     showgrid="false"
     inkscape:zoom="46.093751"
     inkscape:cx="0.55999994"
     inkscape:cy="12.44"
     inkscape:window-x="0"
     inkscape:window-y="27"
     inkscape:window-maximized="1"
     inkscape:current-layer="g844" />
  <g
     id="g844"
     inkscape:label="g844"
     transform="translate(-2,-2.0625)">
    <path
       style="fill:#ffffff;fill-opacity:1"
       d="M 2.125,2.625 Q 2.25,2.25 2.625,2.125 3,2 3.375,2.125 3.75,2.25 4,2.5 4.25,2.75 4.5,3 4.75,3.25 5,3.5 5.25,3.75 5.625,3.875 6,4 6.5,4 7,4 7.5,4 8,4 8.5,4 9,4 9.5,4 10,4 10.375,3.875 10.75,3.75 11,3.5 11.25,3.25 11.5,3 11.75,2.75 12,2.5 12.25,2.25 12.625,2.125 13,2 13.375,2.125 13.75,2.25 13.875,2.625 14,3 14,3.5 q 0,0.5 0,1 0,0.5 0,1 0,0.5 0,1 0,0.5 0,1 0,0.5 0,1 0,0.5 0,1 0,0.5 -0.125,0.875 Q 13.75,10.75 13.5,11 13.25,11.25 13,11.5 12.75,11.75 12.5,12 12.25,12.25 12,12.5 11.75,12.75 11.5,13 11.25,13.25 11,13.5 10.75,13.75 10.5,14 10.25,14.25 10,14.5 9.75,14.75 9.375,14.875 9,15 8.5,15 8,15 7.5,15 7,15 6.625,14.875 6.25,14.75 6,14.5 5.75,14.25 5.5,14 5.25,13.75 5,13.5 4.75,13.25 4.5,13 4.25,12.75 4,12.5 3.75,12.25 3.5,12 3.25,11.75 3,11.5 2.75,11.25 2.5,11 2.25,10.75 2.125,10.375 2,10 2,9.5 2,9 2,8.5 2,8 2,7.5 2,7 2,6.5 2,6 2,5.5 2,5 2,4.5 2,4 2,3.5 2,3 2.125,2.625"
       id="path842"
       inkscape:connector-curvature="0" />
  </g>
</svg>
