<?xml version="1.0" encoding="UTF-8" standalone="no"?>
<!-- Created with Inkscape (http://www.inkscape.org/) -->

<svg
   xmlns:dc="http://purl.org/dc/elements/1.1/"
   xmlns:cc="http://creativecommons.org/ns#"
   xmlns:rdf="http://www.w3.org/1999/02/22-rdf-syntax-ns#"
   xmlns:svg="http://www.w3.org/2000/svg"
   xmlns="http://www.w3.org/2000/svg"
   xmlns:sodipodi="http://sodipodi.sourceforge.net/DTD/sodipodi-0.dtd"
   xmlns:inkscape="http://www.inkscape.org/namespaces/inkscape"
   version="1.1"
   id="svg2"
   width="15.874997"
   height="12.874997"
   viewBox="0 0 15.874997 12.874997"
   sodipodi:docname="mode-pvp.svg"
   inkscape:version="0.92.4 (f8dce91, 2019-08-02)">
  <metadata
     id="metadata8">
    <rdf:RDF>
      <cc:Work
         rdf:about="">
        <dc:format>image/svg+xml</dc:format>
        <dc:type
           rdf:resource="http://purl.org/dc/dcmitype/StillImage" />
        <dc:title></dc:title>
      </cc:Work>
    </rdf:RDF>
  </metadata>
  <defs
     id="defs6" />
  <sodipodi:namedview
     pagecolor="#000000"
     bordercolor="#666666"
     borderopacity="1"
     objecttolerance="10"
     gridtolerance="10"
     guidetolerance="10"
     inkscape:pageopacity="0"
     inkscape:pageshadow="2"
     inkscape:window-width="2560"
     inkscape:window-height="1318"
     id="namedview4"
     showgrid="false"
     inkscape:zoom="40.972221"
     inkscape:cx="-1.9533477"
     inkscape:cy="12.95987"
     inkscape:window-x="0"
     inkscape:window-y="27"
     inkscape:window-maximized="1"
     inkscape:current-layer="g20" />
  <g
     id="g20"
     transform="translate(-1.0625002,-3.0625)">
    <path
       style="fill:#ffffff;fill-opacity:1"
       d="m 5,3.0625 c -0.125,0 -0.25,0.020833 -0.375,0.0625 -0.25,0.083333 -0.4166667,0.25 -0.5,0.5 -0.083333,0.25 -0.083333,0.5 0,0.75 C 4.2083333,4.625 4.3333333,4.8333333 4.5,5 L 5,5.5 5.5,6 6,6.5 C 6.1666667,6.6666667 6.3333333,6.75 6.5,6.75 6.6666667,6.75 6.8333333,6.6666667 7,6.5 L 7.5,6 C 7.6666667,5.8333333 7.75,5.6666667 7.75,5.5 7.75,5.3333333 7.6666667,5.1666667 7.5,5 L 7,4.5 6.5,4 6,3.5 C 5.8333333,3.3333333 5.625,3.2083333 5.375,3.125 5.25,3.0833333 5.125,3.0625 5,3.0625 Z m 8,0 c -0.125,0 -0.25,0.020833 -0.375,0.0625 C 12.375,3.2083333 12.166667,3.3333333 12,3.5 L 11.5,4 11,4.5 10.5,5 10,5.5 9.5,6 9,6.5 8.5,7 8,7.5 7.5,8 7,8.5 6.5,9 6,9.5 C 5.8333333,9.6666667 5.625,9.7916667 5.375,9.875 c -0.25,0.083333 -0.5,0.083333 -0.75,0 C 4.375,9.7916667 4.1666667,9.6666667 4,9.5 3.8333333,9.3333333 3.625,9.2083333 3.375,9.125 c -0.25,-0.083333 -0.5,-0.083333 -0.75,0 -0.25,0.083333 -0.4166667,0.25 -0.5,0.5 -0.083333,0.25 -0.083333,0.5 0,0.75 0.083333,0.25 0.2083333,0.458333 0.375,0.625 0.1666667,0.166667 0.2916667,0.375 0.375,0.625 0.083333,0.25 0.083333,0.5 0,0.75 C 2.7916667,12.625 2.6666667,12.833333 2.5,13 L 2,13.5 1.5,14 c -0.1666667,0.166667 -0.2916667,0.375 -0.375,0.625 -0.083333,0.25 -0.083333,0.5 0,0.75 0.083333,0.25 0.25,0.416667 0.5,0.5 0.25,0.08333 0.5,0.08333 0.75,0 C 2.625,15.791667 2.8333333,15.666667 3,15.5 L 3.5,15 4,14.5 c 0.1666667,-0.166667 0.375,-0.291667 0.625,-0.375 0.25,-0.08333 0.5,-0.08333 0.75,0 0.25,0.08333 0.4583333,0.208333 0.625,0.375 0.1666667,0.166667 0.375,0.291667 0.625,0.375 0.25,0.08333 0.5,0.08333 0.75,0 0.25,-0.08333 0.4166667,-0.25 0.5,-0.5 0.083333,-0.25 0.083333,-0.5 0,-0.75 C 7.7916667,13.375 7.6666667,13.166667 7.5,13 7.3333333,12.833333 7.2083333,12.625 7.125,12.375 c -0.083333,-0.25 -0.083333,-0.5 0,-0.75 C 7.2083333,11.375 7.3333333,11.166667 7.5,11 L 8,10.5 8.5,10 9,9.5 9.5,9 10,8.5 10.5,8 11,7.5 11.5,7 12,6.5 12.5,6 13,5.5 13.5,5 c 0.166667,-0.1666667 0.291667,-0.375 0.375,-0.625 0.08333,-0.25 0.08333,-0.5 0,-0.75 -0.08333,-0.25 -0.25,-0.4166667 -0.5,-0.5 C 13.25,3.0833333 13.125,3.0625 13,3.0625 Z m 2,6 c -0.125,0 -0.25,0.020833 -0.375,0.0625 C 14.375,9.208333 14.166667,9.3333333 14,9.5 c -0.166667,0.1666667 -0.375,0.2916667 -0.625,0.375 -0.25,0.083333 -0.5,0.083333 -0.75,0 C 12.375,9.7916667 12.166667,9.6666667 12,9.5 11.833333,9.3333333 11.666667,9.25 11.5,9.25 11.333333,9.25 11.166667,9.3333333 11,9.5 L 10.5,10 c -0.166667,0.166667 -0.25,0.333333 -0.25,0.5 0,0.166667 0.08333,0.333333 0.25,0.5 0.166667,0.166667 0.291667,0.375 0.375,0.625 0.08333,0.25 0.08333,0.5 0,0.75 -0.08333,0.25 -0.208333,0.458333 -0.375,0.625 -0.166667,0.166667 -0.291667,0.375 -0.375,0.625 -0.08333,0.25 -0.08333,0.5 0,0.75 0.08333,0.25 0.25,0.416667 0.5,0.5 0.25,0.08333 0.5,0.08333 0.75,0 0.25,-0.08333 0.458333,-0.208333 0.625,-0.375 0.166667,-0.166667 0.375,-0.291667 0.625,-0.375 0.25,-0.08333 0.5,-0.08333 0.75,0 0.25,0.08333 0.458333,0.208333 0.625,0.375 l 0.5,0.5 0.5,0.5 c 0.166667,0.166667 0.375,0.291667 0.625,0.375 0.25,0.08333 0.5,0.08333 0.75,0 0.25,-0.08333 0.416667,-0.25 0.5,-0.5 0.08333,-0.25 0.08333,-0.5 0,-0.75 C 16.791667,14.375 16.666667,14.166667 16.5,14 L 16,13.5 15.5,13 c -0.166667,-0.166667 -0.291667,-0.375 -0.375,-0.625 -0.08333,-0.25 -0.08333,-0.5 0,-0.75 0.08333,-0.25 0.208333,-0.458333 0.375,-0.625 0.166667,-0.166667 0.291667,-0.375 0.375,-0.625 0.08333,-0.25 0.08333,-0.5 0,-0.75 -0.08333,-0.25 -0.25,-0.4166667 -0.5,-0.5 C 15.25,9.0833333 15.125,9.0625 15,9.0625 Z"
       id="path14"
       inkscape:connector-curvature="0" />
  </g>
</svg>
