<?xml version="1.0" encoding="UTF-8" standalone="no"?>
<!-- Created with Inkscape (http://www.inkscape.org/) -->

<svg
   xmlns:dc="http://purl.org/dc/elements/1.1/"
   xmlns:cc="http://creativecommons.org/ns#"
   xmlns:rdf="http://www.w3.org/1999/02/22-rdf-syntax-ns#"
   xmlns:svg="http://www.w3.org/2000/svg"
   xmlns="http://www.w3.org/2000/svg"
   xmlns:sodipodi="http://sodipodi.sourceforge.net/DTD/sodipodi-0.dtd"
   xmlns:inkscape="http://www.inkscape.org/namespaces/inkscape"
   version="1.1"
   id="svg2"
   width="7.875"
   height="5.5"
   viewBox="0 0 7.875 5.5"
   sodipodi:docname="power.svg"
   inkscape:version="0.92.4 (f8dce91, 2019-08-02)">
  <metadata
     id="metadata8">
    <rdf:RDF>
      <cc:Work
         rdf:about="">
        <dc:format>image/svg+xml</dc:format>
        <dc:type
           rdf:resource="http://purl.org/dc/dcmitype/StillImage" />
        <dc:title></dc:title>
      </cc:Work>
    </rdf:RDF>
  </metadata>
  <defs
     id="defs6" />
  <sodipodi:namedview
     pagecolor="#000000"
     bordercolor="#666666"
     borderopacity="1"
     objecttolerance="10"
     gridtolerance="10"
     guidetolerance="10"
     inkscape:pageopacity="0"
     inkscape:pageshadow="2"
     inkscape:window-width="2560"
     inkscape:window-height="1318"
     id="namedview4"
     showgrid="false"
     inkscape:zoom="61.458335"
     inkscape:cx="-0.14250004"
     inkscape:cy="6.83"
     inkscape:window-x="0"
     inkscape:window-y="27"
     inkscape:window-maximized="1"
     inkscape:current-layer="g16" />
  <g
     id="g16"
     transform="translate(-2.0625,-3.25)">
    <path
       style="fill:#ffffff;fill-opacity:1"
       d="M 9,3.5 Q 9.25,3.25 9.5,3.25 9.75,3.25 9.875,3.625 10,4 9.875,4.375 9.75,4.75 9.5,5 9.25,5.25 9.125,5.625 9,6 8.875,6.375 8.75,6.75 8.5,7 8.25,7.25 8,7.5 7.75,7.75 7.5,8 7.25,8.25 7,8.5 6.75,8.75 6.5,8.75 6.25,8.75 6,8.5 5.75,8.25 5.5,8 5.25,7.75 5,7.5 4.75,7.25 4.5,7.25 4.25,7.25 4,7.5 3.75,7.75 3.5,8 3.25,8.25 3,8.5 2.75,8.75 2.5,8.75 2.25,8.75 2.125,8.375 2,8 2.125,7.625 2.25,7.25 2.5,7 2.75,6.75 2.875,6.375 3,6 3.125,5.625 3.25,5.25 3.5,5 3.75,4.75 4,4.5 4.25,4.25 4.5,4.25 4.75,4.25 5,4.5 5.25,4.75 5.5,5 5.75,5.25 6,5.5 6.25,5.75 6.5,5.75 6.75,5.75 7,5.5 7.25,5.25 7.5,5 7.75,4.75 8,4.5 8.25,4.25 8.5,4 8.75,3.75 9,3.5"
       id="path14"
       inkscape:connector-curvature="0" />
  </g>
</svg>
