<?xml version="1.0" encoding="UTF-8" standalone="no"?>
<!-- Created with Inkscape (http://www.inkscape.org/) -->

<svg
   xmlns:dc="http://purl.org/dc/elements/1.1/"
   xmlns:cc="http://creativecommons.org/ns#"
   xmlns:rdf="http://www.w3.org/1999/02/22-rdf-syntax-ns#"
   xmlns:svg="http://www.w3.org/2000/svg"
   xmlns="http://www.w3.org/2000/svg"
   xmlns:sodipodi="http://sodipodi.sourceforge.net/DTD/sodipodi-0.dtd"
   xmlns:inkscape="http://www.inkscape.org/namespaces/inkscape"
   version="1.1"
   id="svg2"
   width="7.875"
   height="8.9375"
   viewBox="0 0 7.875 8.9375"
   sodipodi:docname="production.svg"
   inkscape:version="0.92.4 (f8dce91, 2019-08-02)">
  <metadata
     id="metadata8">
    <rdf:RDF>
      <cc:Work
         rdf:about="">
        <dc:format>image/svg+xml</dc:format>
        <dc:type
           rdf:resource="http://purl.org/dc/dcmitype/StillImage" />
        <dc:title></dc:title>
      </cc:Work>
    </rdf:RDF>
  </metadata>
  <defs
     id="defs6" />
  <sodipodi:namedview
     pagecolor="#000000"
     bordercolor="#666666"
     borderopacity="1"
     objecttolerance="10"
     gridtolerance="10"
     guidetolerance="10"
     inkscape:pageopacity="0"
     inkscape:pageshadow="2"
     inkscape:window-width="2560"
     inkscape:window-height="1318"
     id="namedview4"
     showgrid="false"
     inkscape:zoom="43.457605"
     inkscape:cx="-3.23046"
     inkscape:cy="8.3742276"
     inkscape:window-x="0"
     inkscape:window-y="27"
     inkscape:window-maximized="1"
     inkscape:current-layer="g20" />
  <g
     id="g20"
     transform="translate(-2.0625,-1)">
    <path
       style="fill:#ffffff;fill-opacity:1"
       d="M 2.125,1.625 Q 2.25,1.25 2.625,1.125 3,1 3.5,1 4,1 4.5,1 5,1 5.5,1 6,1 6.5,1 7,1 7.5,1 8,1 8.5,1 9,1 9.375,1.125 9.75,1.25 9.875,1.625 10,2 9.875,2.375 9.75,2.75 9.5,3 9.25,3.25 9,3.5 8.75,3.75 8.5,4 8.25,4.25 8.125,4.625 8,5 8,5.5 8,6 8,6.5 8,7 8,7.5 8,8 7.875,8.375 7.75,8.75 7.5,9 7.25,9.25 7,9.5 6.75,9.75 6.375,9.875 6,10 5.625,9.875 5.25,9.75 5,9.5 4.75,9.25 4.5,9 4.25,8.75 4.125,8.375 4,8 4,7.5 4,7 4,6.5 4,6 4,5.5 4,5 3.875,4.625 3.75,4.25 3.5,4 3.25,3.75 3,3.5 2.75,3.25 2.5,3 2.25,2.75 2.125,2.375 2,2 2.125,1.625 m 3,6.75 Q 5.25,8.75 5.5,8.75 5.75,8.75 6,8.5 6.25,8.25 6.5,8 6.75,7.75 6.75,7.5 6.75,7.25 6.5,7 6.25,6.75 6.25,6.5 6.25,6.25 6.5,6 6.75,5.75 6.75,5.5 6.75,5.25 6.5,5 6.25,4.75 6,4.5 5.75,4.25 5.5,4.25 5.25,4.25 5.125,4.625 5,5 5,5.5 5,6 5,6.5 5,7 5,7.5 5,8 5.125,8.375 M 7.5,3 Q 8,3 8.375,2.875 8.75,2.75 8.75,2.5 8.75,2.25 8.375,2.125 8,2 7.5,2 7,2 6.5,2 6,2 5.5,2 5,2 4.5,2 4,2 3.625,2.125 3.25,2.25 3.25,2.5 3.25,2.75 3.625,2.875 4,3 4.5,3 5,3 5.5,3 6,3 6.5,3 7,3 7.5,3"
       id="path14"
       inkscape:connector-curvature="0" />
  </g>
</svg>
