<?xml version="1.0" encoding="UTF-8" standalone="no"?>
<!-- Created with Inkscape (http://www.inkscape.org/) -->

<svg
   xmlns:dc="http://purl.org/dc/elements/1.1/"
   xmlns:cc="http://creativecommons.org/ns#"
   xmlns:rdf="http://www.w3.org/1999/02/22-rdf-syntax-ns#"
   xmlns:svg="http://www.w3.org/2000/svg"
   xmlns="http://www.w3.org/2000/svg"
   xmlns:sodipodi="http://sodipodi.sourceforge.net/DTD/sodipodi-0.dtd"
   xmlns:inkscape="http://www.inkscape.org/namespaces/inkscape"
   version="1.1"
   id="svg2"
   width="14"
   height="14"
   viewBox="0 0 14 14"
   sodipodi:docname="refresh.svg"
   inkscape:version="0.92.4 (f8dce91, 2019-08-02)">
  <metadata
     id="metadata8">
    <rdf:RDF>
      <cc:Work
         rdf:about="">
        <dc:format>image/svg+xml</dc:format>
        <dc:type
           rdf:resource="http://purl.org/dc/dcmitype/StillImage" />
        <dc:title></dc:title>
      </cc:Work>
    </rdf:RDF>
  </metadata>
  <defs
     id="defs6" />
  <sodipodi:namedview
     pagecolor="#000000"
     bordercolor="#666666"
     borderopacity="1"
     objecttolerance="10"
     gridtolerance="10"
     guidetolerance="10"
     inkscape:pageopacity="0"
     inkscape:pageshadow="2"
     inkscape:window-width="2560"
     inkscape:window-height="1318"
     id="namedview4"
     showgrid="false"
     inkscape:zoom="46.093751"
     inkscape:cx="1.5599999"
     inkscape:cy="12.44"
     inkscape:window-x="0"
     inkscape:window-y="27"
     inkscape:window-maximized="1"
     inkscape:current-layer="g18" />
  <g
     id="g18"
     transform="translate(-1,-1)">
    <path
       style="fill:#ffffff;fill-opacity:1"
       d="M 3.5,1 C 3.1666667,1 2.875,1.0416667 2.625,1.125 2.375,1.2083333 2.1666667,1.3333333 2,1.5 L 1.5,2 C 1.3333333,2.1666667 1.2083333,2.375 1.125,2.625 1.0416667,2.875 1,3.1666667 1,3.5 v 1 1 1 1 c 0,0.3333333 0.041667,0.625 0.125,0.875 0.083333,0.25 0.25,0.4166667 0.5,0.5 0.25,0.083333 0.5,0.083333 0.75,0 0.25,-0.083333 0.4166667,-0.25 0.5,-0.5 C 2.9583333,8.125 3,7.8333333 3,7.5 v -1 -1 -1 C 3,4.1666667 3.0416667,3.875 3.125,3.625 3.2083333,3.375 3.375,3.2083333 3.625,3.125 3.875,3.0416667 4.1666667,3 4.5,3 h 1 1 1 1 1 c 0.3333333,0 0.625,0.041667 0.875,0.125 0.25,0.083333 0.375,0.2083333 0.375,0.375 0,0.1666667 -0.08333,0.3333333 -0.25,0.5 -0.166667,0.1666667 -0.25,0.3333333 -0.25,0.5 0,0.1666667 0.125,0.2916667 0.375,0.375 C 10.875,4.9583333 11.166667,5 11.5,5 h 1 c 0.333333,0 0.625,-0.041667 0.875,-0.125 0.25,-0.083333 0.416667,-0.25 0.5,-0.5 C 13.958333,4.125 14,3.8333333 14,3.5 v -1 C 14,2.1666667 13.958333,1.875 13.875,1.625 13.791667,1.375 13.666667,1.25 13.5,1.25 13.333333,1.25 13.166667,1.3333333 13,1.5 12.833333,1.6666667 12.666667,1.75 12.5,1.75 12.333333,1.75 12.166667,1.6666667 12,1.5 11.833333,1.3333333 11.625,1.2083333 11.375,1.125 11.125,1.0416667 10.833333,1 10.5,1 h -1 -1 -1 -1 -1 -1 z M 14,7.0625 c -0.125,0 -0.25,0.020833 -0.375,0.0625 -0.25,0.083333 -0.416667,0.25 -0.5,0.5 C 13.041667,7.875 13,8.1666667 13,8.5 v 1 1 1 c 0,0.333333 -0.04167,0.625 -0.125,0.875 -0.08333,0.25 -0.25,0.416667 -0.5,0.5 C 12.125,12.958333 11.833333,13 11.5,13 h -1 -1 -1 -1 -1 C 6.1666667,13 5.875,12.958333 5.625,12.875 5.375,12.791667 5.25,12.666667 5.25,12.5 5.25,12.333333 5.3333333,12.166667 5.5,12 5.6666667,11.833333 5.75,11.666667 5.75,11.5 5.75,11.333333 5.625,11.208333 5.375,11.125 5.125,11.041667 4.8333333,11 4.5,11 h -1 c -0.3333333,0 -0.625,0.04167 -0.875,0.125 -0.25,0.08333 -0.4166667,0.25 -0.5,0.5 C 2.0416667,11.875 2,12.166667 2,12.5 v 1 c 0,0.333333 0.041667,0.625 0.125,0.875 0.083333,0.25 0.2083333,0.375 0.375,0.375 0.1666667,0 0.3333333,-0.08333 0.5,-0.25 0.1666667,-0.166667 0.3333333,-0.25 0.5,-0.25 0.1666667,0 0.3333333,0.08333 0.5,0.25 0.1666667,0.166667 0.375,0.291667 0.625,0.375 C 4.875,14.958333 5.1666667,15 5.5,15 h 1 1 1 1 1 1 1 c 0.333333,0 0.625,-0.04167 0.875,-0.125 C 13.625,14.79167 13.833333,14.666667 14,14.5 L 14.5,14 c 0.166667,-0.166667 0.291667,-0.375 0.375,-0.625 C 14.958333,13.125 15,12.833333 15,12.5 v -1 -1 -1 -1 C 15,8.1666667 14.95833,7.875 14.875,7.625 14.79167,7.375 14.625,7.2083333 14.375,7.125 14.25,7.0833333 14.125,7.0625 14,7.0625 Z"
       id="path14"
       inkscape:connector-curvature="0" />
  </g>
</svg>
