<?xml version="1.0" encoding="UTF-8" standalone="no"?>
<!-- Created with Inkscape (http://www.inkscape.org/) -->

<svg
   xmlns:dc="http://purl.org/dc/elements/1.1/"
   xmlns:cc="http://creativecommons.org/ns#"
   xmlns:rdf="http://www.w3.org/1999/02/22-rdf-syntax-ns#"
   xmlns:svg="http://www.w3.org/2000/svg"
   xmlns="http://www.w3.org/2000/svg"
   xmlns:sodipodi="http://sodipodi.sourceforge.net/DTD/sodipodi-0.dtd"
   xmlns:inkscape="http://www.inkscape.org/namespaces/inkscape"
   version="1.1"
   id="svg2"
   width="10.75"
   height="13.75"
   viewBox="0 0 10.75 13.75"
   sodipodi:docname="spray.svg"
   inkscape:version="0.92.4 (f8dce91, 2019-08-02)">
  <metadata
     id="metadata8">
    <rdf:RDF>
      <cc:Work
         rdf:about="">
        <dc:format>image/svg+xml</dc:format>
        <dc:type
           rdf:resource="http://purl.org/dc/dcmitype/StillImage" />
        <dc:title></dc:title>
      </cc:Work>
    </rdf:RDF>
  </metadata>
  <defs
     id="defs6" />
  <sodipodi:namedview
     pagecolor="#000000"
     bordercolor="#666666"
     borderopacity="1"
     objecttolerance="10"
     gridtolerance="10"
     guidetolerance="10"
     inkscape:pageopacity="0"
     inkscape:pageshadow="2"
     inkscape:window-width="2560"
     inkscape:window-height="1318"
     id="namedview4"
     showgrid="false"
     inkscape:zoom="14.75"
     inkscape:cx="-15.554688"
     inkscape:cy="6.796875"
     inkscape:window-x="0"
     inkscape:window-y="27"
     inkscape:window-maximized="1"
     inkscape:current-layer="g833" />
  <g
     id="g833"
     transform="translate(-1.249603,-1.2502648)">
    <path
       style="fill:#ffffff;fill-opacity:1"
       d="m 23.804688,1.046875 c -0.166667,0 -0.25,0.083333 -0.25,0.25 0,0.1666667 0.08333,0.25 0.25,0.25 0.166666,0 0.25,-0.083333 0.25,-0.25 0,-0.1666667 -0.08333,-0.25 -0.25,-0.25 z m 6,0.75 c -0.333334,0 -0.625,0.041667 -0.875,0.125 -0.25,0.083333 -0.375,0.2083333 -0.375,0.375 0,0.1666667 0.08333,0.3333333 0.25,0.5 0.166666,0.1666667 0.25,0.3333333 0.25,0.5 0,0.1666667 -0.08333,0.3333333 -0.25,0.5 l -0.5,0.5 -0.5,0.5 -0.5,0.5 -0.5,0.5 c -0.166667,0.1666667 -0.25,0.3333333 -0.25,0.5 0,0.1666667 0.125,0.2916667 0.375,0.375 0.25,0.083333 0.541666,0.125 0.875,0.125 h 1 1 1 1 1 c 0.333333,0 0.625,-0.041667 0.875,-0.125 0.25,-0.083333 0.375,-0.2083333 0.375,-0.375 0,-0.1666667 -0.08333,-0.3333333 -0.25,-0.5 l -0.5,-0.5 -0.5,-0.5 c -0.166667,-0.1666667 -0.291667,-0.375 -0.375,-0.625 -0.08333,-0.25 -0.125,-0.5416667 -0.125,-0.875 0,-0.3333333 -0.04167,-0.625 -0.125,-0.875 -0.08333,-0.25 -0.25,-0.4166667 -0.5,-0.5 -0.25,-0.083333 -0.541667,-0.125 -0.875,-0.125 z m -4,0.25 c -0.166667,0 -0.25,0.083333 -0.25,0.25 0,0.1666667 0.08333,0.3333333 0.25,0.5 0.166666,0.1666667 0.25,0.3333333 0.25,0.5 0,0.1666667 -0.08333,0.3333333 -0.25,0.5 -0.166667,0.1666667 -0.25,0.3333333 -0.25,0.5 0,0.1666667 0.08333,0.25 0.25,0.25 0.166666,0 0.333333,-0.083333 0.5,-0.25 l 0.5,-0.5 c 0.166666,-0.1666667 0.25,-0.3333333 0.25,-0.5 0,-0.1666667 -0.08333,-0.3333333 -0.25,-0.5 l -0.5,-0.5 c -0.166667,-0.1666667 -0.333334,-0.25 -0.5,-0.25 z m -2,1 c -0.166667,0 -0.25,0.083333 -0.25,0.25 0,0.1666667 0.08333,0.25 0.25,0.25 0.166666,0 0.25,-0.083333 0.25,-0.25 0,-0.1666667 -0.08333,-0.25 -0.25,-0.25 z m 0,2 c -0.166667,0 -0.25,0.083333 -0.25,0.25 0,0.1666667 0.08333,0.25 0.25,0.25 0.166666,0 0.25,-0.083333 0.25,-0.25 0,-0.1666667 -0.08333,-0.25 -0.25,-0.25 z m 4,2.75 c -0.333334,0 -0.625,0.041667 -0.875,0.125 -0.25,0.083333 -0.416667,0.25 -0.5,0.5 -0.08333,0.25 -0.125,0.5416667 -0.125,0.875 v 1 1 c 0,0.333333 0.04167,0.625 0.125,0.875 0.08333,0.25 0.25,0.416667 0.5,0.5 0.25,0.08333 0.541666,0.125 0.875,0.125 h 1 1 1 1 1 c 0.333333,0 0.625,-0.04167 0.875,-0.125 0.25,-0.08333 0.416666,-0.25 0.5,-0.5 0.08333,-0.25 0.125,-0.541667 0.125,-0.875 v -1 -1 c 0,-0.3333333 -0.04167,-0.625 -0.125,-0.875 -0.08333,-0.25 -0.25,-0.4166667 -0.5,-0.5 -0.25,-0.083333 -0.541667,-0.125 -0.875,-0.125 h -1 -1 -1 -1 z m 0,6 c -0.333334,0 -0.625,0.04167 -0.875,0.125 -0.25,0.08333 -0.375,0.208333 -0.375,0.375 0,0.166667 0.125,0.291667 0.375,0.375 0.25,0.08333 0.541666,0.125 0.875,0.125 h 1 1 1 1 1 c 0.333333,0 0.625,-0.04167 0.875,-0.125 0.25,-0.08333 0.375,-0.208333 0.375,-0.375 0,-0.166667 -0.125,-0.291667 -0.375,-0.375 -0.25,-0.08333 -0.541667,-0.125 -0.875,-0.125 h -1 -1 -1 -1 z"
       transform="translate(-22.305085,0.20338983)"
       id="path819"
       inkscape:connector-curvature="0" />
  </g>
</svg>
