<?xml version="1.0" encoding="UTF-8" standalone="no"?>
<!-- Created with Inkscape (http://www.inkscape.org/) -->

<svg
   xmlns:dc="http://purl.org/dc/elements/1.1/"
   xmlns:cc="http://creativecommons.org/ns#"
   xmlns:rdf="http://www.w3.org/1999/02/22-rdf-syntax-ns#"
   xmlns:svg="http://www.w3.org/2000/svg"
   xmlns="http://www.w3.org/2000/svg"
   xmlns:sodipodi="http://sodipodi.sourceforge.net/DTD/sodipodi-0.dtd"
   xmlns:inkscape="http://www.inkscape.org/namespaces/inkscape"
   version="1.1"
   id="svg2"
   width="12"
   height="11.75"
   viewBox="0 0 12 11.75"
   sodipodi:docname="terrain.svg"
   inkscape:version="0.92.4 (f8dce91, 2019-08-02)">
  <metadata
     id="metadata8">
    <rdf:RDF>
      <cc:Work
         rdf:about="">
        <dc:format>image/svg+xml</dc:format>
        <dc:type
           rdf:resource="http://purl.org/dc/dcmitype/StillImage" />
        <dc:title></dc:title>
      </cc:Work>
    </rdf:RDF>
  </metadata>
  <defs
     id="defs6" />
  <sodipodi:namedview
     pagecolor="#000000"
     bordercolor="#666666"
     borderopacity="1"
     objecttolerance="10"
     gridtolerance="10"
     guidetolerance="10"
     inkscape:pageopacity="0"
     inkscape:pageshadow="2"
     inkscape:window-width="2560"
     inkscape:window-height="1318"
     id="namedview4"
     showgrid="false"
     inkscape:zoom="52.678571"
     inkscape:cx="6.3777292"
     inkscape:cy="4.2601204"
     inkscape:window-x="0"
     inkscape:window-y="27"
     inkscape:window-maximized="1"
     inkscape:current-layer="g842" />
  <g
     id="g842"
     transform="translate(-1,-1.25)">
    <path
       style="fill:#ffffff;fill-opacity:1;stroke-width:0.95273012"
       d="m 5.0316384,1.8279625 q 0.240113,-0.2362676 0.480226,-0.2362676 0.240113,0 0.480226,0.2362676 0.240113,0.2362676 0.480226,0.4725352 0.240113,0.2362675 0.480226,0.4725351 0.240113,0.2362676 0.480226,0.4725352 0.2401129,0.2362676 0.4802259,0.4725352 0.240113,0.2362675 0.480226,0.2362675 0.240113,0 0.480226,-0.2362675 0.240113,-0.2362676 0.480226,-0.2362676 0.240113,0 0.4802264,0.2362676 0.2401123,0.2362675 0.4802253,0.4725351 0.240113,0.2362676 0.480226,0.4725352 0.240114,0.2362676 0.480226,0.4725351 0.240113,0.2362676 0.480226,0.4725351 0.240113,0.2362676 0.480227,0.4725352 0.240112,0.2362676 0.360168,0.590669 0.120057,0.3544014 0.120057,0.8269365 0,0.4725352 0,0.9450704 0,0.4725351 0,0.9450703 0,0.4725352 0,0.9450699 0,0.472536 0,0.945071 0,0.472534 -0.120057,0.826936 -0.120056,0.354402 -0.480225,0.472535 -0.36017,0.118134 -0.840396,0.118134 -0.480226,0 -0.960452,0 -0.4802253,0 -0.9604517,0 -0.480226,0 -0.960452,0 -0.480226,0 -0.9604519,0 -0.480226,0 -0.960452,0 -0.480226,0 -0.960452,0 -0.480226,0 -0.9604519,0 -0.480226,0 -0.960452,0 -0.480226,0 -0.960452,0 -0.480226,0 -0.8403955,-0.118134 Q 1.4299435,12.460004 1.309887,12.105602 1.1898305,11.7512 1.1898305,11.278666 q 0,-0.472535 0,-0.945071 0,-0.4725347 0,-0.9450699 0,-0.4725352 0,-0.9450703 0,-0.4725352 0,-0.9450704 0,-0.4725351 0,-0.9450703 0,-0.4725352 0.1200565,-0.8269365 Q 1.4299435,5.3719762 1.6700565,5.1357086 1.9101695,4.8994411 2.1502825,4.6631735 2.3903955,4.4269059 2.6305085,4.1906383 2.8706215,3.9543707 3.1107345,3.7181032 3.3508475,3.4818356 3.5909605,3.245568 3.8310735,3.0093004 4.0711865,2.7730328 4.3112995,2.5367652 4.5514125,2.3004977 4.7915254,2.0642301 5.0316384,1.8279625 M 10.314124,11.7512 q 0.480226,0 0.840396,-0.118133 0.360169,-0.118133 0.480226,-0.472535 0.120056,-0.354401 0.120056,-0.826937 0,-0.4725347 0,-0.9450699 0,-0.4725352 0,-0.9450703 0,-0.4725352 -0.120056,-0.8269366 Q 11.514689,7.2621168 11.274576,7.0258493 11.034464,6.7895817 10.79435,6.5533141 10.554237,6.3170465 10.314124,6.0807789 10.074011,5.8445113 9.8338987,5.6082437 9.5937853,5.3719762 9.3536723,5.3719762 q -0.240113,0 -0.480226,0.2362675 -0.240113,0.2362676 -0.480226,0.2362676 -0.240113,0 -0.480226,-0.2362676 Q 7.6728813,5.3719762 7.4327684,5.1357086 7.1926554,4.8994411 6.9525424,4.6631735 6.7124294,4.4269059 6.4723164,4.1906383 6.2322034,3.9543707 5.9920904,3.7181032 5.7519774,3.4818356 5.5118644,3.4818356 q -0.240113,0 -0.480226,0.2362676 -0.240113,0.2362675 -0.4802259,0.4725351 -0.240113,0.2362676 -0.480226,0.4725352 -0.240113,0.2362676 -0.480226,0.4725351 -0.240113,0.2362676 -0.480226,0.4725351 -0.240113,0.2362676 -0.480226,0.4725352 -0.240113,0.2362676 -0.3601695,0.590669 -0.1200565,0.3544014 -0.1200565,0.8269365 0,0.4725352 0,0.9450704 0,0.4725351 0,0.9450703 0,0.4725352 0,0.9450699 0,0.472536 0.1200565,0.826937 0.1200565,0.354402 0.480226,0.472535 0.3601695,0.118133 0.8403955,0.118133 0.480226,0 0.960452,0 0.4802259,0 0.9604519,0 0.480226,0 0.960452,0 0.480226,0 0.960452,0 0.4802259,0 0.9604519,0 0.480226,0 0.960452,0 0.4802264,0 0.9604517,0"
       id="path838"
       inkscape:connector-curvature="0" />
  </g>
</svg>
