<?xml version="1.0" encoding="UTF-8" standalone="no"?>
<!-- Created with Inkscape (http://www.inkscape.org/) -->

<svg
   xmlns:dc="http://purl.org/dc/elements/1.1/"
   xmlns:cc="http://creativecommons.org/ns#"
   xmlns:rdf="http://www.w3.org/1999/02/22-rdf-syntax-ns#"
   xmlns:svg="http://www.w3.org/2000/svg"
   xmlns="http://www.w3.org/2000/svg"
   xmlns:sodipodi="http://sodipodi.sourceforge.net/DTD/sodipodi-0.dtd"
   xmlns:inkscape="http://www.inkscape.org/namespaces/inkscape"
   version="1.1"
   id="svg2"
   width="10"
   height="12"
   viewBox="0 0 10 12"
   sodipodi:docname="trash.svg"
   inkscape:version="0.92.4 (f8dce91, 2019-08-02)">
  <metadata
     id="metadata8">
    <rdf:RDF>
      <cc:Work
         rdf:about="">
        <dc:format>image/svg+xml</dc:format>
        <dc:type
           rdf:resource="http://purl.org/dc/dcmitype/StillImage" />
        <dc:title></dc:title>
      </cc:Work>
    </rdf:RDF>
  </metadata>
  <defs
     id="defs6" />
  <sodipodi:namedview
     pagecolor="#000000"
     bordercolor="#666666"
     borderopacity="1"
     objecttolerance="10"
     gridtolerance="10"
     guidetolerance="10"
     inkscape:pageopacity="0"
     inkscape:pageshadow="2"
     inkscape:window-width="2560"
     inkscape:window-height="1318"
     id="namedview4"
     showgrid="false"
     inkscape:pagecheckerboard="true"
     inkscape:zoom="16.857143"
     inkscape:cx="-18.372881"
     inkscape:cy="5.7627119"
     inkscape:window-x="0"
     inkscape:window-y="27"
     inkscape:window-maximized="1"
     inkscape:current-layer="g26" />
  <g
     id="g26"
     transform="translate(-2,-1)">
    <path
       style="fill:#ffffff;fill-opacity:1"
       d="M 5.125,1.625 Q 5.25,1.25 5.625,1.125 6,1 6.5,1 7,1 7.5,1 8,1 8.375,1.125 8.75,1.25 8.875,1.625 9,2 9.125,2.375 9.25,2.75 9.625,2.875 10,3 10.5,3 11,3 11.375,3.125 11.75,3.25 11.875,3.625 12,4 12,4.5 12,5 12,5.5 12,6 11.875,6.375 11.75,6.75 11.5,7 11.25,7.25 11.125,7.625 11,8 11,8.5 q 0,0.5 0,1 0,0.5 0,1 0,0.5 0,1 0,0.5 -0.125,0.875 -0.125,0.375 -0.5,0.5 Q 10,13 9.5,13 9,13 8.5,13 8,13 7.5,13 7,13 6.5,13 6,13 5.5,13 5,13 4.5,13 4,13 3.625,12.875 3.25,12.75 3.125,12.375 3,12 3,11.5 3,11 3,10.5 3,10 3,9.5 3,9 3,8.5 3,8 2.875,7.625 2.75,7.25 2.5,7 2.25,6.75 2.125,6.375 2,6 2,5.5 2,5 2,4.5 2,4 2.125,3.625 2.25,3.25 2.625,3.125 3,3 3.5,3 4,3 4.375,2.875 4.75,2.75 4.875,2.375 5,2 5.125,1.625 m -1,9.75 Q 4.25,11.75 4.5,11.75 4.75,11.75 4.875,11.375 5,11 5,10.5 5,10 5,9.5 5,9 5,8.5 5,8 4.875,7.625 4.75,7.25 4.5,7.25 4.25,7.25 4.125,7.625 4,8 4,8.5 q 0,0.5 0,1 0,0.5 0,1 0,0.5 0.125,0.875 m 2.5,0.5 Q 7,12 7.375,11.875 7.75,11.75 7.875,11.375 8,11 8,10.5 8,10 8,9.5 8,9 8,8.5 8,8 7.875,7.625 7.75,7.25 7.375,7.125 7,7 6.625,7.125 6.25,7.25 6.125,7.625 6,8 6,8.5 q 0,0.5 0,1 0,0.5 0,1 0,0.5 0.125,0.875 0.125,0.375 0.5,0.5 m 2.5,-0.5 Q 9.25,11.75 9.5,11.75 9.75,11.75 9.875,11.375 10,11 10,10.5 10,10 10,9.5 10,9 10,8.5 10,8 9.875,7.625 9.75,7.25 9.5,7.25 9.25,7.25 9.125,7.625 9,8 9,8.5 9,9 9,9.5 9,10 9,10.5 9,11 9.125,11.375 M 9.5,6 Q 10,6 10.375,5.875 10.75,5.75 10.875,5.375 11,5 10.875,4.625 10.75,4.25 10.375,4.125 10,4 9.5,4 9,4 8.5,4 8,4 7.5,4 7,4 6.5,4 6,4 5.5,4 5,4 4.5,4 4,4 3.625,4.125 3.25,4.25 3.125,4.625 3,5 3.125,5.375 3.25,5.75 3.625,5.875 4,6 4.5,6 5,6 5.5,6 6,6 6.5,6 7,6 7.5,6 8,6 8.5,6 9,6 9.5,6 M 6.625,2.875 Q 7,3 7.375,2.875 7.75,2.75 7.75,2.5 7.75,2.25 7.375,2.125 7,2 6.625,2.125 6.25,2.25 6.25,2.5 q 0,0.25 0.375,0.375"
       id="path14"
       inkscape:connector-curvature="0" />
  </g>
</svg>
