<?xml version="1.0" encoding="UTF-8" standalone="no"?>
<!-- Created with Inkscape (http://www.inkscape.org/) -->

<svg
   xmlns:dc="http://purl.org/dc/elements/1.1/"
   xmlns:cc="http://creativecommons.org/ns#"
   xmlns:rdf="http://www.w3.org/1999/02/22-rdf-syntax-ns#"
   xmlns:svg="http://www.w3.org/2000/svg"
   xmlns="http://www.w3.org/2000/svg"
   xmlns:sodipodi="http://sodipodi.sourceforge.net/DTD/sodipodi-0.dtd"
   xmlns:inkscape="http://www.inkscape.org/namespaces/inkscape"
   version="1.1"
   id="svg32"
   width="10"
   height="7.9374995"
   viewBox="0 0 10 7.9374995"
   sodipodi:docname="units.svg"
   inkscape:version="0.92.4 (f8dce91, 2019-08-02)">
  <metadata
     id="metadata38">
    <rdf:RDF>
      <cc:Work
         rdf:about="">
        <dc:format>image/svg+xml</dc:format>
        <dc:type
           rdf:resource="http://purl.org/dc/dcmitype/StillImage" />
        <dc:title></dc:title>
      </cc:Work>
    </rdf:RDF>
  </metadata>
  <defs
     id="defs36" />
  <sodipodi:namedview
     pagecolor="#000000"
     bordercolor="#666666"
     borderopacity="1"
     objecttolerance="10"
     gridtolerance="10"
     guidetolerance="10"
     inkscape:pageopacity="0"
     inkscape:pageshadow="2"
     inkscape:window-width="2560"
     inkscape:window-height="1318"
     id="namedview34"
     showgrid="false"
     inkscape:zoom="43.457605"
     inkscape:cx="-7.4980789"
     inkscape:cy="8.8012544"
     inkscape:window-x="0"
     inkscape:window-y="27"
     inkscape:window-maximized="1"
     inkscape:current-layer="g60" />
  <g
     id="g60"
     transform="translate(-1,-2)">
    <path
       style="fill:#ffffff;fill-opacity:1"
       d="M 5.5,2 C 5.1666667,2 4.875,2.0416667 4.625,2.125 4.375,2.2083333 4.1666667,2.3333333 4,2.5 L 3.5,3 3,3.5 2.5,4 2,4.5 1.5,5 C 1.3333333,5.1666667 1.2083333,5.375 1.125,5.625 1.0416667,5.875 1,6.1666667 1,6.5 1,6.8333333 1.0416667,7.125 1.125,7.375 1.2083333,7.625 1.3333333,7.75 1.5,7.75 1.6666667,7.75 1.8333333,7.6666667 2,7.5 2.1666667,7.3333333 2.3333333,7.25 2.5,7.25 2.6666667,7.25 2.7916667,7.375 2.875,7.625 2.9583333,7.875 3,8.1666667 3,8.5 c 0,0.3333333 0.041667,0.625 0.125,0.875 0.083333,0.25 0.25,0.4166667 0.5,0.5 0.25,0.083333 0.5,0.083333 0.75,0 0.25,-0.083333 0.4166667,-0.25 0.5,-0.5 l 0.25,-0.75 c 0.083333,-0.25 0.25,-0.4166667 0.5,-0.5 0.25,-0.083333 0.5,-0.083333 0.75,0 0.25,0.083333 0.4166667,0.25 0.5,0.5 l 0.25,0.75 c 0.083333,0.25 0.25,0.4166667 0.5,0.5 0.25,0.083333 0.5,0.083333 0.75,0 0.25,-0.083333 0.4166667,-0.25 0.5,-0.5 C 8.9583333,9.125 9,8.8333333 9,8.5 9,8.1666667 9.0416667,7.875 9.125,7.625 9.2083333,7.375 9.3333333,7.25 9.5,7.25 c 0.1666667,0 0.3333333,0.083333 0.5,0.25 0.166667,0.1666667 0.333333,0.25 0.5,0.25 0.166667,0 0.291667,-0.125 0.375,-0.375 C 10.958333,7.125 11,6.8333333 11,6.5 11,6.1666667 10.958333,5.875 10.875,5.625 10.791667,5.375 10.666667,5.1666667 10.5,5 L 10,4.5 9.5,4 9,3.5 8.5,3 8,2.5 C 7.8333333,2.3333333 7.625,2.2083333 7.375,2.125 7.125,2.0416667 6.8333333,2 6.5,2 Z m 0,1 h 1 C 6.8333333,3 7.125,3.0416667 7.375,3.125 7.625,3.2083333 7.8333333,3.3333333 8,3.5 L 8.5,4 9,4.5 9.5,5 c 0.1666667,0.1666667 0.25,0.3333333 0.25,0.5 0,0.1666667 -0.125,0.2916667 -0.375,0.375 l -0.75,0.25 C 8.375,6.2083333 8.1666667,6.3333333 8,6.5 7.8333333,6.6666667 7.625,6.7916667 7.375,6.875 7.125,6.9583333 6.8333333,7 6.5,7 h -1 C 5.1666667,7 4.875,6.9583333 4.625,6.875 4.375,6.7916667 4.1666667,6.6666667 4,6.5 3.8333333,6.3333333 3.625,6.2083333 3.375,6.125 L 2.625,5.875 C 2.375,5.7916667 2.25,5.6666667 2.25,5.5 2.25,5.3333333 2.3333333,5.1666667 2.5,5 L 3,4.5 3.5,4 4,3.5 C 4.1666667,3.3333333 4.375,3.2083333 4.625,3.125 4.875,3.0416667 5.1666667,3 5.5,3 Z M 6,4.0625 C 5.875,4.0625 5.75,4.0833333 5.625,4.125 5.375,4.2083333 5.25,4.3333333 5.25,4.5 c 0,0.1666667 0.125,0.2916667 0.375,0.375 0.25,0.083333 0.5,0.083333 0.75,0 C 6.625,4.7916667 6.75,4.6666667 6.75,4.5 6.75,4.3333333 6.625,4.2083333 6.375,4.125 6.25,4.0833333 6.125,4.0625 6,4.0625 Z"
       id="path54"
       inkscape:connector-curvature="0" />
  </g>
</svg>
