<?xml version="1.0" encoding="UTF-8" standalone="no"?>
<svg
        xmlns:dc="http://purl.org/dc/elements/1.1/"
        xmlns:cc="http://creativecommons.org/ns#"
        xmlns:rdf="http://www.w3.org/1999/02/22-rdf-syntax-ns#"
        xmlns="http://www.w3.org/2000/svg"
        xmlns:sodipodi="http://sodipodi.sourceforge.net/DTD/sodipodi-0.dtd"
        xmlns:inkscape="http://www.inkscape.org/namespaces/inkscape"
        width="12"
        height="12"
        version="1.1"
        id="svg380"
        sodipodi:docname="admin.svg"
        inkscape:version="1.0.1 (0767f8302a, 2020-10-17)">
  <metadata
     id="metadata386">
    <rdf:RDF>
      <cc:Work
         rdf:about="">
        <dc:format>image/svg+xml</dc:format>
        <dc:type
           rdf:resource="http://purl.org/dc/dcmitype/StillImage" />
        <dc:title></dc:title>
      </cc:Work>
    </rdf:RDF>
  </metadata>
  <defs
     id="defs384" />
  <sodipodi:namedview
     pagecolor="#ffffff"
     bordercolor="#666666"
     borderopacity="1"
     objecttolerance="10"
     gridtolerance="10"
     guidetolerance="10"
     inkscape:pageopacity="0"
     inkscape:pageshadow="2"
     inkscape:window-width="2560"
     inkscape:window-height="1316"
     id="namedview382"
     showgrid="false"
     inkscape:zoom="64.285714"
     inkscape:cx="6"
     inkscape:cy="6"
     inkscape:window-x="0"
     inkscape:window-y="27"
     inkscape:window-maximized="1"
     inkscape:current-layer="svg380" />
  <path
     id="polygon2"
     style="fill:#ffffff"
     d="M 2.5,0 2,0.5 1.5,1 1,1.5 0.5,2 0,2.5 v 1 1 1 1 L 0.5,7 1,7.5 v 1 1 L 1.5,10 2,10.5 2.5,11 3,11.5 3.5,12 h 1 1 1 1 1 L 9,11.5 9.5,11 10,10.5 10.5,10 11,9.5 v -1 -1 L 11.5,7 12,6.5 v -1 -1 -1 -1 L 11.5,2 11,1.5 10.5,1 10,0.5 9.5,0 h -1 -1 -1 -1 -1 -1 z m 2,3 h 1 1 1 L 8,3.5 8.5,4 9,4.5 v 1 L 8.5,6 8,6.5 7.5,7 h -1 -1 -1 L 4,6.5 3.5,6 3,5.5 v -1 L 3.5,4 4,3.5 Z M 5.5,4 5,4.5 v 1 L 5.5,6 h 1 L 7,5.5 v -1 L 6.5,4 Z m -1,4 h 1 1 1 L 8,8.5 7.5,9 h -1 -1 -1 L 4,8.5 Z" />
</svg>
