<?xml version="1.0" encoding="UTF-8" standalone="no"?>
<svg
        xmlns:dc="http://purl.org/dc/elements/1.1/"
        xmlns:cc="http://creativecommons.org/ns#"
        xmlns:rdf="http://www.w3.org/1999/02/22-rdf-syntax-ns#"
        xmlns="http://www.w3.org/2000/svg"
        xmlns:sodipodi="http://sodipodi.sourceforge.net/DTD/sodipodi-0.dtd"
        xmlns:inkscape="http://www.inkscape.org/namespaces/inkscape"
        width="10"
        height="10"
        version="1.1"
        id="svg192"
        sodipodi:docname="distribution.svg"
        inkscape:version="1.0.1 (0767f8302a, 2020-10-17)">
  <metadata
     id="metadata198">
    <rdf:RDF>
      <cc:Work
         rdf:about="">
        <dc:format>image/svg+xml</dc:format>
        <dc:type
           rdf:resource="http://purl.org/dc/dcmitype/StillImage" />
        <dc:title></dc:title>
      </cc:Work>
    </rdf:RDF>
  </metadata>
  <defs
     id="defs196" />
  <sodipodi:namedview
     pagecolor="#ffffff"
     bordercolor="#666666"
     borderopacity="1"
     objecttolerance="10"
     gridtolerance="10"
     guidetolerance="10"
     inkscape:pageopacity="0"
     inkscape:pageshadow="2"
     inkscape:window-width="2560"
     inkscape:window-height="1316"
     id="namedview194"
     showgrid="false"
     inkscape:pagecheckerboard="true"
     inkscape:zoom="90"
     inkscape:cx="5"
     inkscape:cy="5"
     inkscape:window-x="0"
     inkscape:window-y="27"
     inkscape:window-maximized="1"
     inkscape:current-layer="svg192" />
  <path
     id="polygon2"
     style="fill:#ffffff"
     d="M 0.5,0 0,0.5 v 1 1 1 1 1 1 1 1 1 L 0.5,10 1,9.5 v -1 -1 -1 -1 -1 -1 -1 -1 -1 z M 9.5,0 9,0.5 v 1 1 1 1 1 1 1 1 1 L 9.5,10 10,9.5 v -1 -1 -1 -1 -1 -1 -1 -1 -1 z M 4.5,1 4,1.5 3.5,2 3,2.5 3.5,3 h 1 1 1 L 7,2.5 6.5,2 6,1.5 5.5,1 Z M 4.5,4 4,4.5 3.5,5 3,5.5 3.5,6 h 1 1 1 L 7,5.5 6.5,5 6,4.5 5.5,4 Z M 4.5,7 4,7.5 3.5,8 3,8.5 3.5,9 h 1 1 1 L 7,8.5 6.5,8 6,7.5 5.5,7 Z" />
</svg>
