<?xml version="1.0" encoding="UTF-8" standalone="no"?>
<svg
        xmlns:dc="http://purl.org/dc/elements/1.1/"
        xmlns:cc="http://creativecommons.org/ns#"
        xmlns:rdf="http://www.w3.org/1999/02/22-rdf-syntax-ns#"
        xmlns="http://www.w3.org/2000/svg"
        xmlns:sodipodi="http://sodipodi.sourceforge.net/DTD/sodipodi-0.dtd"
        xmlns:inkscape="http://www.inkscape.org/namespaces/inkscape"
        width="10"
        height="10"
        version="1.1"
        id="svg252"
        sodipodi:docname="effect.svg"
        inkscape:version="1.0.1 (0767f8302a, 2020-10-17)">
  <metadata
     id="metadata258">
    <rdf:RDF>
      <cc:Work
         rdf:about="">
        <dc:format>image/svg+xml</dc:format>
        <dc:type
           rdf:resource="http://purl.org/dc/dcmitype/StillImage" />
      </cc:Work>
    </rdf:RDF>
  </metadata>
  <defs
     id="defs256" />
  <sodipodi:namedview
     pagecolor="#ffffff"
     bordercolor="#666666"
     borderopacity="1"
     objecttolerance="10"
     gridtolerance="10"
     guidetolerance="10"
     inkscape:pageopacity="0"
     inkscape:pageshadow="2"
     inkscape:window-width="2560"
     inkscape:window-height="1316"
     id="namedview254"
     showgrid="false"
     inkscape:zoom="90"
     inkscape:cx="5"
     inkscape:cy="5"
     inkscape:window-x="0"
     inkscape:window-y="27"
     inkscape:window-maximized="1"
     inkscape:current-layer="svg252" />
  <path
     id="polygon2"
     style="fill:#ffffff"
     d="M 1.5,0 1,0.5 0.5,1 0,1.5 v 1 1 1 1 1 1 1 L 0.5,9 1,9.5 1.5,10 h 1 1 1 1 1 1 1 L 9,9.5 9.5,9 10,8.5 v -1 -1 -1 -1 -1 -1 -1 L 9.5,1 9,0.5 8.5,0 h -1 -1 -1 -1 -1 -1 z m 1,1 h 1 1 1 1 1 L 8,1.5 8.5,2 9,2.5 v 1 1 1 1 1 L 8.5,8 8,8.5 7.5,9 h -1 -1 -1 -1 -1 L 2,8.5 1.5,8 1,7.5 v -1 -1 -1 -1 -1 L 1.5,2 2,1.5 Z M 4.5,3 4,3.5 3.5,4 3,4.5 v 1 L 3.5,6 4,6.5 4.5,7 h 1 L 6,6.5 6.5,6 7,5.5 v -1 L 6.5,4 6,3.5 5.5,3 Z" />
</svg>
