<?xml version="1.0" encoding="UTF-8" standalone="no"?>
<svg
        xmlns:dc="http://purl.org/dc/elements/1.1/"
        xmlns:cc="http://creativecommons.org/ns#"
        xmlns:rdf="http://www.w3.org/1999/02/22-rdf-syntax-ns#"
        xmlns="http://www.w3.org/2000/svg"
        xmlns:sodipodi="http://sodipodi.sourceforge.net/DTD/sodipodi-0.dtd"
        xmlns:inkscape="http://www.inkscape.org/namespaces/inkscape"
        width="10"
        height="13"
        version="1.1"
        id="svg310"
        sodipodi:docname="file-image.svg"
        inkscape:version="1.0.1 (0767f8302a, 2020-10-17)">
  <metadata
     id="metadata316">
    <rdf:RDF>
      <cc:Work
         rdf:about="">
        <dc:format>image/svg+xml</dc:format>
        <dc:type
           rdf:resource="http://purl.org/dc/dcmitype/StillImage" />
        <dc:title></dc:title>
      </cc:Work>
    </rdf:RDF>
  </metadata>
  <defs
     id="defs314" />
  <sodipodi:namedview
     pagecolor="#ffffff"
     bordercolor="#666666"
     borderopacity="1"
     objecttolerance="10"
     gridtolerance="10"
     guidetolerance="10"
     inkscape:pageopacity="0"
     inkscape:pageshadow="2"
     inkscape:window-width="2560"
     inkscape:window-height="1316"
     id="namedview312"
     showgrid="false"
     inkscape:zoom="79.549513"
     inkscape:cx="1.5476722"
     inkscape:cy="6.573236"
     inkscape:window-x="0"
     inkscape:window-y="27"
     inkscape:window-maximized="1"
     inkscape:current-layer="svg310"
     inkscape:pagecheckerboard="true" />
  <path
     id="polygon2"
     style="fill:#ffffff"
     d="M 0.5,0 0,0.5 v 1 1 1 1 1 1 1 1 1 1 1 1 L 0.5,13 h 1 1 1 1 1 1 1 1 1 L 10,12.5 v -1 -1 -1 -1 -1 -1 -1 -1 -1 -1 L 9.5,2 9,1.5 8.5,1 8,0.5 7.5,0 h -1 -1 -1 -1 -1 -1 z m 1,1 h 1 1 1 L 5,1.5 v 1 1 1 L 5.5,5 h 1 1 1 L 9,5.5 v 1 1 1 1 1 1 L 8.5,12 h -1 -1 -1 -1 -1 -1 -1 L 1,11.5 v -1 -1 -1 -1 -1 -1 -1 -1 -1 -1 z m 5,0 h 1 L 8,1.5 8.5,2 9,2.5 v 1 L 8.5,4 h -1 -1 L 6,3.5 v -1 -1 z M 6.5,6 6,6.5 v 1 L 6.5,8 h 1 L 8,7.5 v -1 L 7.5,6 Z M 4.5,7 4,7.5 3.5,8 3,8.5 v 1 L 2.5,10 2,10.5 2.5,11 h 1 1 1 1 L 7,10.5 6.5,10 6,9.5 5.5,9 5,8.5 v -1 z" />
</svg>
