<?xml version="1.0" encoding="UTF-8" standalone="no"?>
<svg
        xmlns:dc="http://purl.org/dc/elements/1.1/"
        xmlns:cc="http://creativecommons.org/ns#"
        xmlns:rdf="http://www.w3.org/1999/02/22-rdf-syntax-ns#"
        xmlns="http://www.w3.org/2000/svg"
        xmlns:sodipodi="http://sodipodi.sourceforge.net/DTD/sodipodi-0.dtd"
        xmlns:inkscape="http://www.inkscape.org/namespaces/inkscape"
        width="12"
        height="12"
        version="1.1"
        id="svg300"
        sodipodi:docname="info.svg"
        inkscape:version="1.0.1 (0767f8302a, 2020-10-17)">
  <metadata
     id="metadata306">
    <rdf:RDF>
      <cc:Work
         rdf:about="">
        <dc:format>image/svg+xml</dc:format>
        <dc:type
           rdf:resource="http://purl.org/dc/dcmitype/StillImage" />
      </cc:Work>
    </rdf:RDF>
  </metadata>
  <defs
     id="defs304" />
  <sodipodi:namedview
     pagecolor="#ffffff"
     bordercolor="#666666"
     borderopacity="1"
     objecttolerance="10"
     gridtolerance="10"
     guidetolerance="10"
     inkscape:pageopacity="0"
     inkscape:pageshadow="2"
     inkscape:window-width="2560"
     inkscape:window-height="1316"
     id="namedview302"
     showgrid="false"
     inkscape:zoom="64.285714"
     inkscape:cx="6"
     inkscape:cy="6"
     inkscape:window-x="0"
     inkscape:window-y="27"
     inkscape:window-maximized="1"
     inkscape:current-layer="svg300" />
  <path
     id="polygon2"
     style="fill:#ffffff"
     d="M 0.5,0 0,0.5 v 1 1 1 1 1 1 1 1 1 1 1 L 0.5,12 h 1 1 1 1 1 1 1 1 1 1 1 L 12,11.5 v -1 -1 -1 -1 -1 -1 -1 -1 -1 -1 -1 L 11.5,0 h -1 -1 -1 -1 -1 -1 -1 -1 -1 -1 z m 2,2 h 1 1 1 1 1 1 1 L 10,2.5 v 1 1 1 1 1 1 1 L 9.5,10 h -1 -1 -1 -1 -1 -1 -1 L 2,9.5 v -1 -1 -1 -1 -1 -1 -1 z M 5.5,3 5,3.5 v 1 L 5.5,5 h 1 L 7,4.5 v -1 L 6.5,3 Z M 5.5,6 5,6.5 v 1 1 L 5.5,9 h 1 L 7,8.5 v -1 -1 L 6.5,6 Z" />
</svg>
